/* XPM */
static char *wood[] = {
/* columns rows colors chars-per-pixel */
"50 50 21 1 ",
"  c #C7B8A3",
". c #CCBCA5",
"X c #CEBFA9",
"o c #D0BFA6",
"O c #CFC0AB",
"+ c #D1C0A7",
"@ c #D3C4AD",
"# c #D8C6AE",
"$ c #D8C8AF",
"% c #D5C6B1",
"& c #D8C7B0",
"* c #D7C8B4",
"= c #D9CAB5",
"- c #D7CAB8",
"; c #DCCEBA",
": c #DED0BD",
"> c #E0D2BE",
", c #DED2C1",
"< c #E1D4C3",
"1 c #E4D8C7",
"2 c #E5D9C9",
/* pixels */
"----;--%=;==;;;=;====;=;=;;=;===X----;=*--=-=-;**-",
";;;,::,*;;:;;>;:;>;;;;;=>==;;>>>-,;::;;,;,:;,;;,,,",
":::;;,;->:;==$$&@###&%@%###@@@#@-,;,,;,,,,,,,,;,,,",
";;;;;,;O@@XX+@@&$=;;;;>>>;;:>;=#X;;;;;;;;;-;;;;===",
"%%XX@%%@@@%%*-*@%%#%%%@&%@@**%%%@%X%X%%XX*X%X***XX",
";<;;----;--;;;**;;;;;;=;;;;;;;;;;;:;;;;=;,>>,<,,1<",
"<:><>>,:>>;:;:;-;;;;;;;:;;;>:;;;:;;;:;:--<>>>>>><<",
"::>>>:;;>;>:>>;&;====-=&-&-==;&&*===*=*%->>>>>>>>>",
"*-**-*%-%%*%%%@+@@@@O*@*@@+@+@@@XX**%%%%*-%---%-X=",
"<<,,<<,,-X%*#$;;;=:=:==;;;=;;=***%,<,1<,,,,1,,,,1<",
";,,;;;;:&---===$**%$**&&&--;=;;;;*;;-,-,,;;;;;;,;,",
",,,,<<<<;=::>=>;::::::>:>>>>>>:;:*;,<,,,,;;,;;;,,,",
"%X@@%%&=%@#@@@##@%#%$&*$*%*******%*----**%%%-%%-X-",
"--:==;;;:;;;;;;;=;==$====*,:::,::,,,,,,,,,,,,,,,<<",
";=:;;:;:=;;:;;;;=;;===;=;%:,,,<,<1<<<<<<<<11<<<<1<",
"--=;==$&=====;==;=;=;;=;:*,11111<<<<,<,,,,-,,;:;,,",
"O@%*****==&-&&&%$$&&&*%**O*-----*O%%%%O*%--%-*--%%",
"*$*$&&*$-&&&-&-&==&=&=$@::;;;,:,:;,--,:;,;,-;:;;%=",
"@@@$@@@@@@#@@#&%@@$%%@*O:;;::;:::::-:-::::-::;;:O%",
"$$$$=$*@@$@@#@&@$$%$%$$*,::::,::,:,,,::::,,,<,:,%#",
"OOOOOOOO@+@%@+@@O@@O%OOO;-;;;*-;-;---*;**-;-----OO",
",,,:,,,-:::::;-;;==;=;=&**%****-O;,,,,,,,,,,,,,,,,",
"::,::::*:::::;;;;;===;&;;*==;==;%:,,:;:::,::,,::::",
"<,1,<,<;<1<<<<<<<<<<<<<<1,11,11,:,,,,,><,,,<,,,,,:",
"::,-:;:-;:;,,,,,,,::,:,::,::;:-:-;-;-:;;-:;:,;;:::",
"****---O-&--**-***---;*-**;****-O=;-*--*;-*****--*",
"======*O@@%&%&&&%%%%%%*&:,:,>:,:=:::;;=:;;=:;;;==:",
"=*==***%;--&---*--*%%*;;,:,:::::@=***@****%***&*=&",
"--&&*=*%;;:;=;=;;=;;;::;-;***%OOO;***-==*=*==**;-=",
"..X.... ..............  ..  . .O   O... ....O .  .",
"+@@@#@@@#@#####@##@#@@O@;;;**;;;;;;;;;;;:::;:=::O+",
"@#@$@@@@+@@@@@@+@@@@@@O%:::;:;:;::-;::;:;-:;::=:O#",
"$#$$####+$#@+$@#O@++@@OO;;-=;=;=*;*======;;;=;==+$",
"  .. .  .o+++++.++*-=*%%%%O%O%*---;;;;---%O  OO  .",
"+++@+#@@+##$$$@#%%2,:=;-*;-,<12<,1,,<122,,-+++O@++",
">====;==$=$$&$=$=%-%**%%-,,,<1<<,,,,<<<<,,-&======",
"$$*$$*$$$$&&=&&=$O;:,,,,,,1<<<<<1,<<<1<<,1=@=$$$$$",
"+#@@O+OO+OOO@+O+OO-%-===--=&***$**$$**$==*%++@@@%O",
"===&*$*$*&*$$*$*$@$+&===:==$*$$$&==$&$$$&=$=@&&&&=",
"$$$$@@++O+++O@%$*$*%$;==&====;==:=;;;;;;;=;&*&;===",
"@$$$%$$$@+@%@%$$$=&O=====-=====*$@@%%*=&=$$&O$$$&*",
"@%@@@@OO%%@@%@@@+@@OO+++++OO+OO@%%%*%@**$$%*OOOOOO",
"-==-=@@%@@%$@%*%@@@$O%@$O$$@O$O%&&=-&=&=&=---=-*==",
"=*&*=%&$$%+++@++@O+++++++++++++$======;&==&=&====&",
"$**$$O+O+O++@@+@OO@@@O%O$OO$@#+$&&=&&=*%$*&=&$*$%#",
"O@O+++++O+O++++++++++++O+O++.+.+OOO%OO%**-;-;-***@",
"+@%O@%@%@%%%%%%@@%@$@$*$OOOO+@#+@@%%**%@@OO@@@@*$$",
"$;=;===$===&&====*==&*==%@=*;;;>::::::::::;&-***==",
"$=&===================:=&=::;:;>:;>>;>>>>>=>>>>>>>",
"O*%$&&=&*&==&$$***$$$***O*:::;>;;:>;>>>=>;>==>$>=="
};
