/* XPM */
static char *steak[] = {
/* columns rows colors chars-per-pixel */
"50 50 51 1 ",
"  c #2F1106",
". c #301207",
"X c #321409",
"o c #381609",
"O c #35180C",
"+ c #3B190B",
"@ c #451D0D",
"# c #4A1F0E",
"$ c #4B200F",
"% c #4F2311",
"& c #532413",
"* c #5B2615",
"= c #542915",
"- c #5C2916",
"; c #5B2718",
": c #5C2B19",
"> c #5E3019",
", c #602A17",
"< c #642D1A",
"1 c #692E1C",
"2 c #63331B",
"3 c #6A331E",
"4 c #6A381F",
"5 c #6D3520",
"6 c #6D3921",
"7 c #733623",
"8 c #793726",
"9 c #743B24",
"0 c #7A3A27",
"q c #7C3D28",
"w c #7A4127",
"e c #7E432A",
"r c #813E2B",
"t c #84432D",
"y c #89462E",
"u c #864A2E",
"i c #894A2F",
"p c #894730",
"a c #8C4A31",
"s c #914D33",
"d c #955136",
"f c #9A5336",
"g c #9D5539",
"h c #9E593C",
"j c #A1573A",
"k c #A35A3C",
"l c #A85E3F",
"z c #A65F40",
"x c #A85F40",
"c c #AC6343",
"v c None",
/* pixels */
"vvvvvvvvvvvvvvvvvvvvvvvvvvvvvvvvvvvvvvvvvvvvvvvvvv",
"vvvvvvvvvvvvvvvvvvvvvvvvvvvvvvvvvvvvvvvvvvvvvvvvvv",
"vvvvvvvvvvvvvvvvvvvvvvvvvvvvvvvvvvvvvvvvvvvvvvvvvv",
"vvvvvvvvvvvvvvvvvvvvvvvvvvvvvvvvvvvvvvvvvvvvvvvvvv",
"vvvvvvvvvvvvvvvvvvvvvvvvvvvvvvvvvvvvvvvvvvvvvvvvvv",
"vvvvvvvvvvvvvvvvvvvvvvvvvvvvvvvvvvvvvvvvvvvvvvvvvv",
"vvvvvvvvvvvvvvvvvvvvvvvvvvvvvvvvvvvvvvvvvvvvvvvvvv",
"vvvvvvvvvvvvvvvvvvvvvvvvvvvvvvvvvvvvvvvvvvvvvvvvvv",
"vvvvvvvvvvvvvvvvvvvvvvvvvvvvvvvvvvvvvvvvvvvvvvvvvv",
"vvvvvvvvvvvvvvvvvvvvvvvvvvvvvvvvvvvvvvvvvvvvvvvvvv",
"vvvvvvvvvvvvvvvvvvvvvvvvvvvvvvvvvvvvvvvvvvvvvvvvvv",
"vvvvvvvvvvvvvvvvvvvvvvvvvvv:**;;;;;*:vvvvvvvvvvvvv",
"vvvvvvvvvvvvvvvvvvvvvvvvvvv;*********vvvvvvvvvvvvv",
"vvvvvvvvvvvvvvvvvvvvvvvvvvv3313331177vvvvvvvvvvvvv",
"vvvvvvvvvvvvvvvvvvvvvvvvv;,qtysiyryjg4;;vvvvvvvvvv",
"vvvvvvvvvvvvvvvvvvvvvvvvv*,ryyssytpfj5;,vvvvvvvvvv",
"vvvvvvvvvvvvvvvvvvvvvv:-:>2hzkgfr0rpp077;;vvvvvvvv",
"vvvvvvvvvvvvvvvvvvvvvv-*;>4zcxjjr80tt007;;vvvvvvvv",
"vvvvvvvvvvvvvvvvvvvvvv73499dfhgfpreqqqq7&&vvvvvvvv",
"vvvvvvvvvvvvvvvvvvvv*<fgjjd4>9asgja23qt9XXvvvvvvvv",
"vvvvvvvvvvvvvvvvvvvv*3fjjkf424aagka2>qp9X.vvvvvvvv",
"vvvvvvvvvvvvvvv:;:;15769ixlssu4wadaew65>XXvvvvvvvv",
"vvvvvvvvvvvvvv:****1882,uxckki>2taptt5>=..vvvvvvvv",
"vvvvvvvvvvvvvv:*;1<7rq22ehhjkd44pspew5:=.Xvvvvvvvv",
"vvvvvvvvvvvv;;>24iidjdq9624zczgfptrq8;$#X.vvvvvvvv",
"vvvvvvvvvvvv**:>4isfjfrq624kcljjptr08=$@XXvvvvvvvv",
"vvvvvvvvvvvv;*30094ilksssiiwwixztq7-;@oOvvvvvvvvvv",
"vvvvvvvvvvvv**7ye>2ycckkjjf4>wcxt85##X Xvvvvvvvvvv",
"vvvvvvvvvvvv,:9pe64uzhkhjjg42whhq73%$O Xvvvvvvvvvv",
"vvvvvvvvv:*3repasklu2wzcljgttw44&%%$$o Xvvvvvvvvvv",
"vvvvvvvvv:*1ttaadccu>4zcljgyy9>>%$%$$o.Xvvvvvvvvvv",
"vvvvvvvvv:*5ggauafgdsietyasiit44&#@++Ovvvvvvvvvvvv",
"vvvvvvvvv:*7ccdtpaagcz2>6ttasp08&$@..vvvvvvvvvvvvv",
"vvvvvvvvv:*9kzdpaasgch626ttppt87&@@XXvvvvvvvvvvvvv",
"vvvvvvvvvvvv33azkgggkgaptq0:=&&%oXOvvvvvvvvvvvvvvv",
"vvvvvvvvvvvv&*acckkkkgsst07%###%o.Xvvvvvvvvvvvvvvv",
"vvvvvvvvvvvv@@:99ete99753<;@+@++Ovvvvvvvvvvvvvvvvv",
"vvvvvvvvvvvv..  O>>=###$$$#X  ..vvvvvvvvvvvvvvvvvv",
"vvvvvvvvvvvvXXX +>>&$####$#O.X.Xvvvvvvvvvvvvvvvvvv",
"vvvvvvvvvvvvvvvvv++oooXXXoXvvvvvvvvvvvvvvvvvvvvvvv",
"vvvvvvvvvvvvvvvvvX.X.  X..Xvvvvvvvvvvvvvvvvvvvvvvv",
"vvvvvvvvvvvvvvvvvvOXXXOOXOvvvvvvvvvvvvvvvvvvvvvvvv",
"vvvvvvvvvvvvvvvvvvvvvvvvvvvvvvvvvvvvvvvvvvvvvvvvvv",
"vvvvvvvvvvvvvvvvvvvvvvvvvvvvvvvvvvvvvvvvvvvvvvvvvv",
"vvvvvvvvvvvvvvvvvvvvvvvvvvvvvvvvvvvvvvvvvvvvvvvvvv",
"vvvvvvvvvvvvvvvvvvvvvvvvvvvvvvvvvvvvvvvvvvvvvvvvvv",
"vvvvvvvvvvvvvvvvvvvvvvvvvvvvvvvvvvvvvvvvvvvvvvvvvv",
"vvvvvvvvvvvvvvvvvvvvvvvvvvvvvvvvvvvvvvvvvvvvvvvvvv",
"vvvvvvvvvvvvvvvvvvvvvvvvvvvvvvvvvvvvvvvvvvvvvvvvvv",
"vvvvvvvvvvvvvvvvvvvvvvvvvvvvvvvvvvvvvvvvvvvvvvvvvv"
};
