/* XPM */
static char *cat[] = {
/* columns rows colors chars-per-pixel */
"50 50 212 2 ",
"   c #4B2A1C",
".  c #4E291D",
"X  c #4C2A1C",
"o  c #4C2A1D",
"O  c #4C2B1D",
"+  c #4D2B1D",
"@  c #4F2A1D",
"#  c #4E2B1D",
"$  c #4F2B1D",
"%  c #4D2B1E",
"&  c #4D2A1F",
"*  c #4F2A1E",
"=  c #4E2B1E",
"-  c #4F2B1E",
";  c #4E2C1E",
":  c #4F2C1E",
">  c #4E2C1F",
",  c #4E2D1F",
"<  c #512B1B",
"1  c #502A1C",
"2  c #502B1D",
"3  c #502A1E",
"4  c #502B1E",
"5  c #512B1E",
"6  c #502B1F",
"7  c #512B1F",
"8  c #502D1D",
"9  c #532D1D",
"0  c #502C1E",
"q  c #512C1E",
"w  c #512C1F",
"e  c #512D1F",
"r  c #532D1E",
"t  c #512C20",
"y  c #512E22",
"u  c #542E20",
"i  c #503125",
"p  c #533024",
"a  c #533124",
"s  c #533025",
"d  c #523125",
"f  c #533125",
"g  c #533126",
"h  c #523226",
"j  c #533327",
"k  c #543226",
"l  c #543326",
"z  c #543227",
"x  c #51342A",
"c  c #51362C",
"v  c #53362C",
"b  c #5B392D",
"n  c #5C392D",
"m  c #5C3A2E",
"M  c #5D3A2E",
"N  c #5D3B2E",
"B  c #5D3B2F",
"V  c #5E3B2F",
"C  c #5A3C2F",
"Z  c #5C3C2F",
"A  c #5D3C2F",
"S  c #5E3C2F",
"D  c #5B3B30",
"F  c #5D3B30",
"G  c #5A3C30",
"H  c #5B3C30",
"J  c #5A3D30",
"K  c #5B3D31",
"L  c #5B3E32",
"P  c #5A3E33",
"I  c #5C3C30",
"U  c #5D3C30",
"Y  c #5C3D30",
"T  c #5C3C31",
"R  c #5D3C31",
"E  c #5C3D31",
"W  c #5E3C30",
"Q  c #5E3C31",
"!  c #5E3D31",
"~  c #5F3D31",
"^  c #5E3E30",
"/  c #5F3E30",
"(  c #5C3D32",
")  c #5E3D32",
"_  c #5F3D32",
"`  c #5E3E32",
"'  c #5B3F35",
"]  c #5C3F34",
"[  c #5C4035",
"{  c #5C4135",
"}  c #5E4138",
"|  c #5E4238",
" . c #554B46",
".. c #564B46",
"X. c #564C47",
"o. c #564D48",
"O. c #534F4C",
"+. c #554F4D",
"@. c #544F4E",
"#. c #56504D",
"$. c #55504E",
"%. c #545352",
"&. c #545453",
"*. c #5E5957",
"=. c #5F5958",
"-. c #664B40",
";. c #674B40",
":. c #664B41",
">. c #674C41",
",. c #674C42",
"<. c #674C43",
"1. c #694B42",
"2. c #684C41",
"3. c #684C42",
"4. c #684D42",
"5. c #694D42",
"6. c #684D43",
"7. c #694D43",
"8. c #605B57",
"9. c #605A58",
"0. c #605B58",
"q. c #605B59",
"w. c #615B59",
"e. c #605B5A",
"r. c #605C59",
"t. c #615C59",
"y. c #615C5A",
"u. c #616160",
"i. c #606161",
"p. c #626260",
"a. c #616262",
"s. c #6B6A69",
"d. c #6B6C6C",
"f. c #6C6C6C",
"g. c #6C6D6C",
"h. c #A59A95",
"j. c #A59B96",
"k. c #A59A97",
"l. c #A59C96",
"z. c #A59C97",
"x. c #A69C96",
"c. c #A69C97",
"v. c #A59D98",
"b. c #A69D98",
"n. c #A79D98",
"m. c #A59F9E",
"M. c #A5A09C",
"N. c #A5A09D",
"B. c #A6A19C",
"V. c #A6A09D",
"C. c #A5A09E",
"Z. c #A6A19E",
"A. c #A6A19F",
"S. c #A6A29E",
"D. c #A6A5A3",
"F. c #A8A3A0",
"G. c #AFAAA7",
"H. c #AFA9A8",
"J. c #AFA9A9",
"K. c #AFAAA8",
"L. c #AEABA8",
"P. c #AFAEAE",
"I. c #AFAFAF",
"U. c #B1AAA7",
"Y. c #B0ABA7",
"T. c #B0A9A8",
"R. c #B0AAA8",
"E. c #B1AAA8",
"W. c #B0ABA8",
"Q. c #B1ABA8",
"!. c #B0ABAA",
"~. c #B1ABAA",
"^. c #B0ACA9",
"/. c #B1ACA9",
"(. c #B1ADA9",
"). c #B2ADA9",
"_. c #B0ACAA",
"`. c #B1ACAA",
"'. c #B1ADAA",
"]. c #B0ACAB",
"[. c #B1ACAB",
"{. c #B1ADAB",
"}. c #B2ACAA",
"|. c #B2ADAA",
" X c #B2ADAB",
".X c #B3ADAB",
"XX c #B2AEAB",
"oX c #B1B0AE",
"OX c #B0B0B0",
"+X c #B0B1B0",
"@X c #B0B1B1",
"#X c #B1B1B1",
"$X c #B2B2B1",
"%X c #B1B2B2",
"&X c #B9B9B8",
"*X c #B9B9B9",
"=X c #BAB9B8",
"-X c #BAB9B9",
";X c #BABAB9",
":X c #BABABA",
">X c #BABBBB",
",X c #BBBBBB",
"<X c #BCBDBB",
"1X c #BDBDBB",
"2X c #BBBCBC",
"3X c #BBBDBC",
"4X c #BBBCBD",
"5X c #BCBCBC",
"6X c #BCBDBC",
"7X c #BDBDBC",
"8X c #BCBCBD",
"9X c None",
/* pixels */
"9X9X9X9X9X9X9X9X9X9X9X9X9X9X9X9X9X9X9X9X9X9X9X9X9X9X9X9X9X9X9X9X9X9X9X9X9X9X9X9X9X9X9X9X9X9X9X9X9X9X",
"9X9X9X9X9X9X9X9X9X9X9X9X9X9X9X9X9X9X9X9X9X9X9X9X9X9X9X9X9X9X9X9X9X9X9X9X9X9X9X9X9X9X9X9X9X9X9X9X9X9X",
"9X9X9X9X9X9X9X9X9X9X9X9X9X9X9X9X9X9X9X9X9X9X9X9X9X9X9X9X9X9X9X9X9X9X9X9X9X9X9X9X9X9X9X9X9X9X9X9X9X9X",
"9X9X9X9X9X9X9X9X9X9X9X9X9X9X9X9X9X9X9X9X9X9X9X9X9X9X9X9X9X9X9X9X9X9X9X9X9X9X9X9X9X9X9X9X9X9X9X9X9X9X",
"9X9X9X9X9X9X9X9X9X9X9X9X9X9X9X9X9X9X9X9X9X9X9X9X9X9X9X9X9X9X9X9X9X9X9X9X9X9X9X9X9X9X9X9X9X9X9X9X9X9X",
"9X9X9X9X9X9X9X9X9X9X9X9X9X9X9X9X9X9X9X9X9X9X9X9X9X9X9X9X9X9X9X9X9X9X9X9X9X9X9X9X9X9X9X9X9X9X9X9X9X9X",
"9X9X9X9X9X9X9X9X9X9X9X9X9X9X9X9X9X9X9X9X9X9X9X9X9X9X9X9X9X9X9X9X9X9X9X9X9X9X9X9X9X9X9X9X9X9X9X9X9X9X",
"9X9X9X9X9X9X9X9X9X9X9X9X9X9X9X9X9X9X9X9X9X9X9X9X9X9X9X9X9X9X9X9X9X9X9X9X9X9X9X9X9X9X9X9X9X9X9X9X9X9X",
"9X9X9X9X9X9X9X9X9X9X9X9X9X9X9X9X9X9X9X9X9X9X9X9X9X9X9X9X9X9X9X9X9X9X9X9X9X9X9X9X9X9X9X9X9X9X9X9X9X9X",
"9X9X9X9X9X9X9X9X9X9X9X9X9X9X9X9X9X9X9X9X9X9X9X9X9X9X9X9X9X9X9X9X9X9X9X9X9X9X9X9X9X9X9X9X9X9X9X9X9X9X",
"9X9X9X9X9X9X9X9X9X9X9X9X; ; 9X9X9X9X9X9X9X9X9X9X. ; 9X9X9X9X9X9X9X9X9X9X9X9X9X9X9X9X9X9X9X9X9X9X9X9X",
"9X9X9X9X9X9X9X9X9X9X9X9XJ J 9X9X9X9X9X9X9X9X9X9XJ J 9X9X9X9X9X9X9X9X9X9X9X9X9X9X9X9X9X9X9X9X9X9X9X9X",
"9X9X9X9X9X9X9X9X9X9X. R b.b.C   9X9X9X9X9X9X. J b.b.C   9X9X9X9X9X9X9X9X9X9X9X9X9X9X9X9X9X9X9X9X9X9X",
"9X9X9X9X9X9X9X9X9X9X6 R _.XX7.C 9X9X9X9X9X9XJ ,.oX_.7.Z 9X9X9X9X9X9X9X9X9X9X9X9X9X9X9X9X9X9X9X9X9X9X",
"9X9X9X9X9X9X9X9X9X9X. R G.:X_.x.R 6 w w w R x._.=X=X_.x.J . w w w w . ; w ; 9X9X9X9X9X9X9X9X9X9X9X9X",
"9X9X9X9X9X9X9X9X9X9XD 7._.6X1X_.{ a Z Z k { U.1X,X1X1X_.7.N k a a k R R a a 9X9X9X9X9X9X9X9X9X9X9X9X",
"9X9X9X9X9X9X9X9X; Z x._.=X,X,X+Xy.=.A.A.*.q.P.,X,X,X,X-XXXm.q.+.+.q.m.m.*...i 6 6 . 9X9X9X9X9X9X9X9X",
"9X9X9X9X9X9X9X9Xw [ Y.<X,X,X,X+Xd.d.%X%Xd.d.OX,X,X,X,X-X[.m.q.+.&.i.%X+Xi.#.v k R J 9X9X9X9X9X9X9X9X",
"9X9X9X9X; t w w < / L.1X,X,X,X,XOX%X:X:X%XOX:X:X,X,X6X[.2.N k x +.i.P.OXi.%.+.q.A.b.J   9X9X9X9X9X9X",
"9X9X9X9X; w w w < / L.,XJ.J.;X,X,X:XJ.XX:X,X,X:XXX[.,X[.2.F ~ } q.d.%X%Xf.i.i.f.oX_.7.C 9X9X9X9X9X9X",
"9X9X9X9X9X9X9X9X< Z Y._.;.-.J.,X3X_.7.7._.1X6X~.-.-._.:X~.U.U.~.P.%X:X:XOXOXOXOX,X=X_.j.R . 9X9X9X9X",
"9X9X9X9X9X9X9X9XC 7..X_.,.,.J.,X_.j.N N h._.:X_.-.-._.:X.X~.U.~.:X3X:X:X,X,X,X,X:X1X1X~.R . 9X9X9X9X",
"9X9X9X9X; w w R h._.,X=X~.J.:X~.7.N w 9 n 2._.:X~._.:X~.7.F N 2.J.3X,X,X,X,X,X,X1X6X6XJ.R . 9X9X9X9X",
"9X9X9X9X; w w ~ U.1X,X1X6X,X3X~.7.N Z Z Z 7.U.1X,X6X3X~.2.F N 2.~.,X,X,X,X,X,X,X:X:X,X[.7.R 9X9X9X9X",
"9X9X9X9X9X9Xw R J.3X:X:X3X:X3X:X_.J.J.J.J.J.:X,X,X,X,X:X[.J.J.J.:X,X,X,X,X,X,X,X,X,X:X:X_.x.Z ; 9X9X",
"9X9X9X9X9X9Xw R J.3X:X3X,X,X,X,X3X3X3X3X3X3X,X,X,X,X,X,X,X6X3X3X,X,X,X,X,X,X,X,X,X,X:X1X1XY.R . 9X9X",
"9X9X9X9X9X9X$ Z J.3X:X,X,X,X,X,X:X3X,X,X,X,X,X,X,X,X,X,X,X,X,X,X,X,X,X,X,X,X,X,X,X,X:X:X6X~.R w 9X9X",
"9X9X9X9X9X9Xw R J.3X3X,X,X,X,X,X,X:X,X,X,X,X,X,X,X,X,X,X,X,X,X,X,X,X,X,X,X,X,X,X,X,X1X:X,X~.R < 9X9X",
"9X9X9X9X9X9Xw R J.3X:X,X,X,X,X,X,X,X,X,X,X,X,X,X,X,X,X,X,X,X,X,X,X,X,X,X,X,X,X,X,X,X,X,X3XJ.R 6 9X9X",
"9X9X9X9X9X9Xw R J.3X:X3X,X,X,X,X,X,X,X,X,X,X,X,X,X,X,X,X,X,X,X,X,X,X,X,X,X,X,X,X,X,X,X,X3XJ.R w 9X9X",
"9X9X9X9X9X9X< R J.3X,X,X,X,X,X,X,X,X,X,X,X,X,X,X,X,X,X,X,X,X,X,X,X,X,X,X,X,X,X,X,X6X,X,X3XJ.R 6 9X9X",
"9X9X9X9X9X9X< [ J.6X,X,X,X,X,X,X,X,X,X,X,X,X,X,X,X,X,X,X,X,X,X,X,X,X,X,X,X,X,X:X[._.:X,X1XU.R 6 9X9X",
"9X9X9X9X9X9X; R Y.6X,X,X,X,X,X,X,X,X,X,X,X,X,X,X,X,X,X,X,X,X,X,X,X,X1X1X3X3X1X_.7.,._.1X1X_.R w 9X9X",
"9X9X9X9X9X9X. R b._.=X1X,X,X:X,X,X,X,X,X,X,X,X,X,X,X,X,X,X,X,X,X,X=X~.J.U.U.U.j.J { G.1XY.x.C $ 9X9X",
"9X9X9X9X9X9X9X9XR ,._.1X,X,X1X:X,X,X,X,X,X,X,X,X,X,X,X,X,X,X,X,X1X~.7.F Z R R { X.y.oX_.7.J 9X9X9X9X",
"9X9X9X9X9X9X9X9Xo C x.oX=X,X,X,X,X,X,X,X,X,X,X,X,X,X,X,X,X,X,X:X_.j.] a N Z a v y.s.A.x.C . 9X9X9X9X",
"9X9X9X9X9X9X9X9X9X9XC 7._.1X1X1X,X3X3X1X3X6X,X1X3X3X1X3X3X,X1X_.7.] X.y.A.A.8.8.D.F.,.J 9X9X9X9X9X9X",
"9X9X9X9X9X9X9X9X9X9Xo J x.U.U.G.U.L.J.L.G.G.J.U.J.G.G.Y.L.J.U.j.N t X.y.A.A.8.*.A.b.C o 9X9X9X9X9X9X",
"9X9X9X9X9X9X9X9X9X9X9X9XR R R R R R R R R R R ~ R R R R R Z [ Z u w p k Z Z k k Z R 9X9X9X9X9X9X9X9X",
"9X9X9X9X9X9X9X9X9X9X9X9X. 6 6 6 < $ w < w w ; w w < w $ w w < < w w w < w < w w ; ; 9X9X9X9X9X9X9X9X",
"9X9X9X9X9X9X9X9X9X9X9X9X9X9X9X9X9X9X9X9X9X9X9X9X9X9X9X9X9X9X9X9X9X9X9X9X9X9X9X9X9X9X9X9X9X9X9X9X9X9X",
"9X9X9X9X9X9X9X9X9X9X9X9X9X9X9X9X9X9X9X9X9X9X9X9X9X9X9X9X9X9X9X9X9X9X9X9X9X9X9X9X9X9X9X9X9X9X9X9X9X9X",
"9X9X9X9X9X9X9X9X9X9X9X9X9X9X9X9X9X9X9X9X9X9X9X9X9X9X9X9X9X9X9X9X9X9X9X9X9X9X9X9X9X9X9X9X9X9X9X9X9X9X",
"9X9X9X9X9X9X9X9X9X9X9X9X9X9X9X9X9X9X9X9X9X9X9X9X9X9X9X9X9X9X9X9X9X9X9X9X9X9X9X9X9X9X9X9X9X9X9X9X9X9X",
"9X9X9X9X9X9X9X9X9X9X9X9X9X9X9X9X9X9X9X9X9X9X9X9X9X9X9X9X9X9X9X9X9X9X9X9X9X9X9X9X9X9X9X9X9X9X9X9X9X9X",
"9X9X9X9X9X9X9X9X9X9X9X9X9X9X9X9X9X9X9X9X9X9X9X9X9X9X9X9X9X9X9X9X9X9X9X9X9X9X9X9X9X9X9X9X9X9X9X9X9X9X",
"9X9X9X9X9X9X9X9X9X9X9X9X9X9X9X9X9X9X9X9X9X9X9X9X9X9X9X9X9X9X9X9X9X9X9X9X9X9X9X9X9X9X9X9X9X9X9X9X9X9X",
"9X9X9X9X9X9X9X9X9X9X9X9X9X9X9X9X9X9X9X9X9X9X9X9X9X9X9X9X9X9X9X9X9X9X9X9X9X9X9X9X9X9X9X9X9X9X9X9X9X9X",
"9X9X9X9X9X9X9X9X9X9X9X9X9X9X9X9X9X9X9X9X9X9X9X9X9X9X9X9X9X9X9X9X9X9X9X9X9X9X9X9X9X9X9X9X9X9X9X9X9X9X",
"9X9X9X9X9X9X9X9X9X9X9X9X9X9X9X9X9X9X9X9X9X9X9X9X9X9X9X9X9X9X9X9X9X9X9X9X9X9X9X9X9X9X9X9X9X9X9X9X9X9X"
};
