/* XPM */
static char *cat_bg[] = {
/* columns rows colors chars-per-pixel */
"50 50 56 1 ",
"  c #4F271A",
". c #4F2A1E",
"X c #512C1D",
"o c #522E22",
"O c #563225",
"+ c #593526",
"@ c #56362A",
"# c #593628",
"$ c #5B3B2E",
"% c #5D3D31",
"& c #603F32",
"* c #5E4034",
"= c #614133",
"- c #544E4A",
"; c #55504E",
": c #545352",
"> c #595655",
", c #5B5856",
"< c #5B5B5A",
"1 c #616262",
"2 c #BFAF99",
"3 c #B0A7A3",
"4 c #B0A9A5",
"5 c #B1AEAB",
"6 c #B4B1AF",
"7 c #B5B3B2",
"8 c #B8B5B3",
"9 c #B8B8B6",
"0 c #B7B9B8",
"q c #BBBBBB",
"w c #C0AF98",
"e c #C3B29C",
"r c #C8B79F",
"t c #C5B6A2",
"y c #C8B6A0",
"u c #C7B8A2",
"i c #CCBCA5",
"p c #CDBEAA",
"a c #D0BFA7",
"s c #BFC0BE",
"d c #CFC0AC",
"f c #D1C0A7",
"g c #D3C3AD",
"h c #D8C7AF",
"j c #D8C8AF",
"k c #D5C6B2",
"l c #D8C7B0",
"z c #D7C8B5",
"x c #D9CAB4",
"c c #D7CAB8",
"v c #DCCEBA",
"b c #DED0BD",
"n c #E0D1BD",
"m c #DFD2C1",
"M c #E1D4C2",
"N c #E5D9C7",
/* pixels */
"ccvccvzkcxvxvvvxvvxvvxvvvvvxvvvxacxamclzxzzcccczzc",
"bvvvbbmcnvvnnnvvnvnxxvvxxvxvvvvncmmmvmvmmmmmnvnnnn",
"mbbmmmvvnvxvxxxgghhgkklljxhlklhhcMmmmmmmmmvmMmmMmm",
"cvvccvcdgapiffghlxxxvvvvvvvxvxxhpmpxccxmvvcxcxxvzz",
"ppipppppppgkkzzggghgpkgppapkggpkppapipppppaappappp",
"MMvvvvcvvvvvvvcxvvvvvvvvbvbvvvvvvmmvvmvvmMmmMMmmMM",
"bnbbnMvnMnvnvvvxvvvvvvxbvvvbvvvvvvvmmvmxvmnnmnnnnM",
"bmMbbbvvvvnvnnvccxxxzcxxcllxczzlxxxvalxmzmvnmmnnnv",
"vvccckccczzzccgggkkklzkklkhgghhppampmpppmpmpmpmpzc",
"mMmmMMmmvpkkppcxvxvvxxcckkcvcxczmpmMMNmmMmMMMmmmMM",
"vvmvvmvbvzbk%%dclclllzvp$$kvxvvvmpmmmmmmmmvvmmmcbb",
"MmmmMMMMvvli$$pcvvbbbvvp$$pvvnvxmpmMmmvmmmmvcmmmbn",
"kkhhkzxxzi&&44$$fvcxvp%$54$$kvvvmcmMmcmpppmppmpcpc",
"cvvvvxvvvkOO8q$$ighfkt$$99$$pvkkcppppcmmmmMNmmMMMN",
"ccvvvvvxnkOo7q84&#O#@%40q983&O@@###O@=mNNNNMmMNNNM",
"czxxxxhhht$%7qp0@XOO.@7pqqq8%oooooOO.%pccpcmmmmmmm",
"ppkzpcva**40qqq7,>55>>70qq0q75<::<55>;@@@%pmppppdd",
"xxxapaayOo7qqqq71100110s0qqq05<::<00<;ooo%ppmmMmcl",
"alli&#++.@7qqqqq77qq77qqsqs6&ooo;<07<::>55%$pNcmhd",
"llxa&OOO @7q77qqsq77qqqq77q7%O#@<1701<<100@%pcmmkh",
"pppptti3Oo88%%7qs7%%8qs7$$7q787770q070770074&&pmdd",
"MMMMmmmt&&88@%7074Oo39q8$%7q7778qqqqqqqqqqs7OOcMmm",
"vmMk&O@&38qq77q7%O.XO%6q77q7&oO&7qqqqq0qqqq7OOzMbb",
"MMNc&O O7qqqqqq7%O@#O%6qqqq7%OO&7qqqqqqqqqq7&&pcbm",
"vmmvzp##7qqqqqqq7777770qqqq07777qqqq0qqqqqqq63$*zm",
"ckckvp#@7qqqqqqqqsqqqqqqqqqqqqqqq0qqqqqqqqqqd8OOdc",
"xxxxvp#O7qqqqqqqqqq0qqqqqqqqqqqqqqqqqqqqqqq0s7++dv",
"cxxxcp#O7qqqqqqqqqqqqqqqqqqqqqqqqqqqqqqqqqq0s7O#db",
"cklxvp##7qqqqqqqqqqqqqqqqqq0qqqqqqq0qqqq0qqqq7@Odc",
"iiyiiwO#7sqq0qqqqqqqqqq0qqqqqqqqqqqqqqqqqqqqq7@O2f",
"ahhahiOO7qtqqqqqqqqqqqqqqqqqqqqq0qqq0qqqqqqqs7++ug",
"ahlahiO#7qqqqqqq0qqqqqqqq0qqqqqqqqqqqqqq77q0q7++uj",
"lhllxaOO8pqqq0qqqqqqqqq0qqqqqqqq0qqsqqm7$$7ss7@oux",
"iriiie$$40qqqqqqqqqqq0qqqqqqqqqqq0777853@@7074$$2u",
"haapgfpw$$7s0qqqqqqqqqqq0qqqqqqqs7%OOO#@->08$$wifg",
"xxxvxxnh%$470qqqq0q0qqqqqqqqq0qq83@oOOoO:155$&gvlc",
"hxhllxlkay@$7sqssqsqssssqqqqdss8%@;,57,,66$$ragxhh",
"hhhkhaahki%$48667777666677767774Oo;,65,,65$$rxgghh",
"xxxlllllkgat%OOOO+OOOO++OOOO@@oO XooOOXXO$rgdlxxlc",
"hhlhkppaffhi%O##+++++@@@###O@@O###++O###O=gnfxxxlj",
"hjjlghghgggkipppfddfddgggddgdddfpppppdpdfflxdjjjjh",
"dddddddddgffggdgffdftfffdffgdddkgggkglgkkkggpuiifd",
"klcllkghggjjlggkjfggdggkdgggggdklkkllclllllccxcclc",
"xlllvljjjggfgfgfgffgfffffffffffjxlxxxcxccxclxxxlcl",
"lkllldgdfffdgggggfggggggkgggggfxxxxjlcjjlljxljljhh",
"gkgdfffffddffffffffdfffgfffffffdfddfgdgcclcccclchg",
"fkkkhgghjggjllgggggkgkkzddffffjfgglkclkdggggggkkjx",
"gxxxxcxxxxxxcxxxxxxjxxxxkgkcxbvnbbbbbbbbbbxcxclcjj",
"kvlxxxxvxxvxxxvxxxxvxvbxkxbbbvvnbbvnnnnnnnvnnnnnnv",
"gjklxxxjjjxxxjxjxjljjlxjkkbbbbvnbbbnnnnvvnnvnvxvvn"
};
