/* XPM */
static char *exit_bg[] = {
/* columns rows colors chars-per-pixel */
"50 49 60 1 ",
"  c #AEAFB1",
". c #AFB0B1",
"X c #B1B2B3",
"o c #BFBFBE",
"O c #CCBA9F",
"+ c #C5BBAD",
"@ c #CEBEAA",
"# c #D0BEA3",
"$ c #C6BEB2",
"% c #C9BFB1",
"& c #C0BFBF",
"* c #BFC2BE",
"= c #D4C4AC",
"- c #D9C7AE",
"; c #D9C8AF",
": c #C7C0B7",
"> c #CBC2B4",
", c #C6C2BA",
"< c #C9C3B9",
"1 c #D6C6B1",
"2 c #D7C8B5",
"3 c #DBCBB4",
"4 c #D0C7BC",
"5 c #D3C9BD",
"6 c #DECEBA",
"7 c #DFD0BB",
"8 c #E0CFB6",
"9 c #E0CFB8",
"0 c #E0D0B7",
"q c #E1D2BC",
"w c #C4C6C2",
"e c #C8C7C7",
"r c #C6C9C5",
"t c #C9C9C7",
"y c #CCCDCC",
"u c #D3CBC0",
"i c #CFD0C7",
"p c #CED2CD",
"a c #D0D0C7",
"s c #D4D5CD",
"d c #D7D9CF",
"f c #D8D8CF",
"g c #CFD3D0",
"h c #D5D7D4",
"j c #D6DAD5",
"k c #DBDCD4",
"l c #D7DCD8",
"z c #DADEDA",
"x c #E2D4C2",
"c c #E5D8C6",
"v c #DFE0D7",
"b c #DDE1DC",
"n c #E0E0D7",
"m c #E1E2DB",
"M c #DFE4E0",
"N c #E5E6E5",
"B c #EEEEEE",
"V c #F3F3F3",
"C c #F8F7F7",
"Z c #F9F8F8",
/* pixels */
"66q6xux3xx9xx9999999x999999999995999x9999xx9x9xxu9",
"75,<<<<<%%%%%$%&%w%%%%$$w$$$%ww%$&w<w$w%<<%&%&$$ux",
"x<XX........XXX XXXX....XX...XX.X  XX.....X.  XX4x",
"@$XoeeeeeeeeeeeeeeeeeeeeeeeeeeeeeeeeeeeeeeeeeeoX+@",
"94.&VVVVVVVVVVBVVVVVVBVBVVVVVBVVVBVBBVVVVVBVVV&X49",
"q4X&BBBVVVVBVVVVVVVVVVVVBBVVVVVVVVVVVVVVVVVVBB& 4x",
"q5.&BVNeyyyyyyyyyeyyyyhyBBtyyyyyyyyyyyyyepeNVB&X5x",
"9<X&BChtkskhkssshhsfssf&NN&fsshsggggggggghehVB&X%3",
"x4XoBVhhmkvkvvvvvnvvvvviNNemnvkhlgzMbbMzbMglVBoXux",
"x4XoBChhmhkkhkvkkkkkkkbrNNevvvkklhzbblbllMghCBoX4x",
"x4.&BChhvvmmmvvvbnbnbvmiNNyNmzzzbhlMbbzbbbghVBoX4x",
"3<XoBChsvkvkkkvkvkkbkvvtNNumzzjkllllllllllyhCBoX%2",
"2%X&BVhsvvvkkkkvkkknkkv4NNtbzzzjllllllbllbghCBoX4x",
"6>X&BVhsmvmvvvvvnnnnvvmtNNiNzMMbbbMbMbbbbMhlVBo.uc",
"6%X&BVhpvvhvvzvkkmknvkmtNNyNbMbMMbMbMMMbMMghVBoXuc",
"1$X&BClpvzvvvvkvzknkvkmyNNeMzzzllllllhlhhlyhCBoX$2",
";%.&BChynkkkkkfkkkkkffv,NNtljlljhjjhjjlllbygVBoX+=",
"9%.&BCkankkkkfvvnkkknfnwNNtNzbbbbbbbbbbllbgjCBoX:-",
"@%.&BVhakckkfkkkckfkfnnwNNezzzlzlblllblblMglVBoX+-",
"-%.oBChavhffkfffkkffkfnwBNtMzzbzblbbbjbjlzgjCBoX+=",
"9%X&BVhtvvvmmvvzkzzvkkveNNrlljllhlllzlzllMglCBoX:6",
"xu.&BVzhmmMmmmvmnmvzvvmeNNrbllklhMMMMbMbMMglVBoX5q",
"x4X&BChezkzkvhkvkkkkkhveNNwljhjjgljhgljjglegCBoX47",
"xu.&BVNeyhyyyyyppyppyypyBByyygygyyygyyyygyyMVBo.5c",
";%X&VBVZCCCCCCCCCCCCCCZZBBZCCCCCCCCVCCCCCCCVBVoX>3",
"9uX&BVNeyyyyyyypyyypyyiyBByyyyyyypppygyppptMVBoX<7",
"1%X&BVh&kddsshssddsspsh*NNwljjjlgdgggsphhhthCBoX>;",
"x%X&BVhhmmmnmmmmmzmnbbbyNNyMzzzlgvvblzzkzzphVBoX46",
"@%X&BChtkkfkkfkkkkkkdjjwNNwspppsphgjhpshhhtjCBoX+=",
"#+X&BVhuffffsfssssssdss*NNwjhhhhhshsshhjhhyhVBo.+=",
"-%X&BVlynfkkkkkkkknfjjlrNNrbbvbbbbbbbbzzzbpjVB*.>=",
"8%X&BChakffkkcfdkkcfjsjrNNrbjllllklkllzzlbphCB*.=-",
"#+.&BVhtvsffffffsddjhhgwNNrbjjjjjllllljjjlylVB&.+=",
"#+.&BChuffsfffffdsmbbblrNNrljlzbblzzlbbbzbrlVB&X+O",
"8%.&BChavkkkfckndvbbjjbrNNrMMMbbblMbbMbbMMygCB&X>-",
"8%.&BChsvnnvvknnvjjjjjbrNNyMbbbbMMMbMbMbbMyhCB&.13",
"-@X&BChacfkfkkfkddbbbbbyNNrMbbbblzbzblbbbMghCBo.>-",
";%X&BVhazkkkkhkfdjjhhjbrNNrjjgjjjljjjjjjjjyhVB&.>;",
"9%X&BVhykkkfkkknjdjjjjvwNNpvlkkklkzkzkkzlzphCB&.>3",
";%X&BChyksffffkkvjjgvvbrNNyblklljlkllklkkkphCB&X>;",
"-%X&BChpnkkkkkkkjjjskjbrNNtzkjkjjljjjjkklzphCB&X>=",
"@$X&BChwssassssappytiiroNNopyptgppphgpppphwhVB&X+=",
"9%.&BVbeayyyyyyyytttypyyBBtyyteyyyeyyyyyyytMVB&.43",
"94.&BBVVVVBVVBVVVVVVVBBVBBVVVVVVVVVVVVVVVVVBBB&X>;",
"-%X&VVVVVVBVVVBVVVVVBVVVVBVBVBVVVVVBVVBVVBVVVV&X>=",
"@%XoeeeeeeeeeeeeeeeeeeeetttteeeeeeeteeeeeeeeeeoX:=",
"@%.XXX.X..XX......   .  ....XX....    ........X.>3",
"3u$%%<$<,$,<%<,$::<<:,<<:,<,<<%4<<::<<<<<<<<<,<,33",
"13;3;;;3333;3833;33933991299q9qqqqqqqqqqqqqqqqqqqq"
};
