/* XPM */
static char *exit[] = {
/* columns rows colors chars-per-pixel */
"50 49 58 1 ",
"  c #B4B4B4",
". c #B5B5B5",
"X c #B9B9B9",
"o c #9EC4D7",
"O c #9EC5D7",
"+ c #A8C0CB",
"@ c #A8C0CC",
"# c #B2C3CB",
"$ c #B2C3CC",
"% c #ABC5D2",
"& c #AFC6D2",
"* c #ADC9D7",
"= c #ADC9D8",
"- c #B4C8D2",
"; c #B5C8D2",
": c #A1CCE1",
"> c #A2CDE1",
", c #B2D1E1",
"< c #B2D2E1",
"1 c #C1C1C1",
"2 c #C7C7C7",
"3 c #C6CBCE",
"4 c #C7CDCF",
"5 c #C8C8C8",
"6 c #C9C9C9",
"7 c #C8CCCE",
"8 c #C9CDCF",
"9 c #CBCECF",
"0 c #C6CDD1",
"q c #C7CED1",
"w c #C8CED1",
"e c #C9CED1",
"r c #C8CFD1",
"t c #C9CFD1",
"y c #CBCED0",
"u c #CBCFD1",
"i c #C8CFD2",
"p c #CBCFD2",
"a c #CCCFD0",
"s c #D4D6D8",
"d c #D4D7D8",
"f c #D5D7D8",
"g c #D5D7D9",
"h c #D6D8D9",
"j c #E0E1E1",
"k c #E1E1E1",
"l c #E4E4E4",
"z c #E9E9E9",
"x c #EAEAEA",
"c c #EBEBEB",
"v c #ECECEC",
"b c #EFEFEF",
"n c #F0F0F0",
"m c #F1F0F0",
"M c #F1F1F0",
"N c #F1F1F1",
"B c #F2F1F1",
"V c None",
/* pixels */
"VVVVVVVVVVVVVVVVVVVVVVVVVVVVVVVVVVVVVVVVVVVVVVVVVV",
"VV..............................................VV",
"VV..  ... .... .  ...  ... .  ..   ... .  ......VV",
"VV.X255555255525255555255525255555525525255555X.VV",
"VV.1xbbbbbbbbbbbbbbbbbbbbbbbbbbbbbbbbbbbbbbbbx1.VV",
"VV 1xNNNbbnbnnnnnnbbbNbNbNnnnnbnnNnnnnnNnnbbNv1.VV",
"VV 1vNj3uuuuuuuuuuuuuuu8xx8uuuu000000000003lNbX.VV",
"VV.1vNf*VVVVVVVVVVVVVVV#ll#VVVVVVVVVVVVVVVogNx1.VV",
"VV.1vNg<VVVVVVVVVVVVVVV;ll;VVVVVVVVVVVVVVV:gNv1 VV",
"VV.1vNg<VVVVVVVVVVVVVVV;ll;VVVVVVVVVVVVVVV:gNc1 VV",
"VV.1vNg<VVVVVVVVVVVVVVV;ll-VVVVVVVVVVVVVVV:gNb1 VV",
"VV 1vNg<VVVVVVVVVVVVVVV;ll;VVVVVVVVVVVVVVV:gNx1 VV",
"VV 1xNh<VVVVVVVVVVVVVVV;ll;VVVVVVVVVVVVVVV:gNx1 VV",
"VV.1bNh<VVVVVVVVVVVVVVV;ll;VVVVVVVVVVVVVVV:gNb1.VV",
"VV.1xNh<VVVVVVVVVVVVVVV;ll;VVVVVVVVVVVVVVV:gNc1.VV",
"VV.1xNh<VVVVVVVVVVVVVVV;ll;VVVVVVVVVVVVVVV:gNc1 VV",
"VV 1vBg<VVVVVVVVVVVVVVV;ll&VVVVVVVVVVVVVVV:hNx1 VV",
"VV 1vBh<VVVVVVVVVVVVVVV;ll%VVVVVVVVVVVVVVV:hNb1.VV",
"VV 1vNg<VVVVVVVVVVVVVVV;ll%VVVVVVVVVVVVVVV:hNc1 VV",
"VV.1vNg<VVVVVVVVVVVVVVV;ll%VVVVVVVVVVVVVVV:gNc1 VV",
"VV.1vNg<VVVVVVVVVVVVVVV;ll%VVVVVVVVVVVVVVV:gNc1 VV",
"VV.1xNg<VVVVVVVVVVVVVVV;ll%VVVVVVVVVVVVVVV:sNc1.VV",
"VV.1bNg*VVVVVVVVVVVVVVV#ll+VVVVVVVVVVVVVVVOsNx1 VV",
"VV 1xbl8uuuuuuuuuuuuuuuaxxu0uu0u00uu0u0uu00lNb1 VV",
"VV 1vnNnNnnnnnNnnnnNnnnnNnnbNbNnNnnNbnNnnNbbNx1.VV",
"VV.1vNl8uuuuuuuuuuuuuuuuxxuu0uu00uu00u0uu04lNb1.VV",
"VV.1vNs%VVVVVVVVVVVVVVV@ll+VVVVVVVVVVVVVVVofNx1.VV",
"VV.1vNg<VVVVVVVVVVVVVVV%ll%VVVVVVVVVVVVVVV:gNv1.VV",
"VV.1vNg<VVVVVVVVVVVVVVV%ll%VVVVVVVVVVVVVVV:gNbX.VV",
"VV 1vNg<VVVVVVVVVVVVVVV%ll%VVVVVVVVVVVVVVV:gNx1.VV",
"VV 1vNg<VVVVVVVVVVVVVVV%ll%VVVVVVVVVVVVVVV:gNb1.VV",
"VV 1vNg<VVVVVVVVVVVVVVV%ll%VVVVVVVVVVVVVVV:gNx1.VV",
"VV.1vNh,VVVVVVVVVVVVVVV%ll%VVVVVVVVVVVVVVV:gNx1.VV",
"VV.1vNh<VVVVVVVVVVVVVVV%ll%VVVVVVVVVVVVVVV:gNb1 VV",
"VV.1vNg<VVVVVVVVVVVVVVV%ll%VVVVVVVVVVVVVVV:gNb1 VV",
"VV 1vNh<VVVVVVVVVVVVVVV%ll%VVVVVVVVVVVVVVV:gNx1.VV",
"VV 1vNg<VVVVVVVVVVVVVVV%ll%VVVVVVVVVVVVVVV:gNx1.VV",
"VV.1vNg<VVVVVVVVVVVVVVV%ll%VVVVVVVVVVVVVVV:gNx1.VV",
"VV.1vNg<VVVVVVVVVVVVVVV%ll%VVVVVVVVVVVVVVV:gNb1.VV",
"VV.1vNg<VVVVVVVVVVVVVVV%ll%VVVVVVVVVVVVVVV:sNx1.VV",
"VV.1vNg<VVVVVVVVVVVVVVV%ll%VVVVVVVVVVVVVVV:gNbX.VV",
"VV 1vNf*VVVVVVVVVVVVVVV+ll@VVVVVVVVVVVVVVVosNx1.VV",
"VV.1vNj4uuu8uuu000000008xx80000000000000003jNx1.VV",
"VV.1xNnNnnnnbnbnnnnnNnnnbNnnnNnnnNnnnNnnNnnNNb1.VV",
"VV.1xnbbbbbbbbbbbbbbbbbbbbbbbbbbbbbbbbbbbbbbbx1.VV",
"VV.X225555522555525555555555525555555255555252X.VV",
"VV..    .     .               ..        .   ....VV",
"VV..............................................VV",
"VVVVVVVVVVVVVVVVVVVVVVVVVVVVVVVVVVVVVVVVVVVVVVVVVV"
};
