/* XPM */
static char *start[] = {
/* columns rows colors chars-per-pixel */
"50 50 101 2 ",
"   c #020101",
".  c #0A0706",
"X  c #0E0A0B",
"o  c #1A0F0D",
"O  c #1C110F",
"+  c #1B1511",
"@  c #20170F",
"#  c #231614",
"$  c #251A13",
"%  c #291C14",
"&  c #2D1C19",
"*  c #311E1A",
"=  c #332416",
"-  c #35241C",
";  c #3C251E",
":  c #3E2B1A",
">  c #3D301F",
",  c #3D2520",
"<  c #3C3222",
"1  c #412E1D",
"2  c #442A21",
"3  c #4A2D25",
"4  c #502F26",
"5  c #443323",
"6  c #4C3426",
"7  c #4C3A26",
"8  c #4F3328",
"9  c #503724",
"0  c #533825",
"q  c #593E26",
"w  c #533228",
"e  c #5B362B",
"r  c #523E28",
"t  c #5E382D",
"y  c #643A2F",
"u  c #673B30",
"i  c #683C31",
"p  c #4F442C",
"a  c #52442D",
"s  c #5B412A",
"d  c #574630",
"f  c #564A32",
"g  c #5C4C32",
"h  c #5E5134",
"j  c #654629",
"k  c #6D4B2C",
"l  c #704D2D",
"z  c #624E33",
"x  c #6A4F32",
"c  c #635435",
"v  c #6B5335",
"b  c #695A3A",
"n  c #7B5532",
"m  c #705837",
"M  c #7D5934",
"N  c #735D3A",
"B  c #6F603D",
"V  c #75613D",
"C  c #78623E",
"Z  c #756640",
"A  c #786741",
"S  c #7E6943",
"D  c #835A34",
"F  c #895E37",
"G  c #85623B",
"H  c #8A653C",
"J  c #94653A",
"K  c #976B3D",
"L  c #9C6C3D",
"P  c #A26D3D",
"I  c #A0703F",
"U  c #816C43",
"Y  c #867147",
"T  c #877348",
"R  c #8A754A",
"E  c #917749",
"W  c #947D4D",
"Q  c #967F50",
"!  c #A47442",
"~  c #96804E",
"^  c #9F824E",
"/  c #998250",
"(  c #A1844F",
")  c #A78953",
"_  c #A98C54",
"`  c #AE9459",
"'  c #B89154",
"]  c #B0965B",
"[  c #B59A5D",
"{  c #B89E5E",
"}  c #BAA05F",
"|  c #BA9C60",
" . c #BEA260",
".. c #C5A25F",
"X. c #C3A663",
"o. c #C7A964",
"O. c #CBAC67",
"+. c #CDAE68",
"@. c #D0AD68",
"#. c #CEB068",
"$. c None",
/* pixels */
"$.$.$.$.$.$.$.$.$.$.$.$.$.$.$.$.$.$.$.$.$.$.$.$.$.$.$.$.$.$.$.$.$.$.$.$.$.$.$.$.$.$.$.$.$.$.$.$.$.$.",
"$.$.$.$.$.$.$.$.$.$.$.$.$.$.$.$.$.$.$.$.$.$.$.$.$.$.$.$.$.$.$.$.$.$.$.$.$.$.$.$.$.$.$.$.$.$.$.$.$.$.",
"$.$.$.$.$.$.$.$.$.$.$.$.$.$.$.$.$.$.$.$.$.$.$.$.$.$.$.$.$.$.$.$.$.$.$.$.$.$.$.$.$.$.$.$.$.$.$.$.$.$.",
"$.$.$.$.$.$.$.$.$.$.$.$.$.$.$.$.$.$.$.$.$.$.$.$.$.$.$.$.$.$.$.$.$.$.$.$.$.$.$.$.$.$.$.$.$.$.$.$.$.$.",
"$.$.$.$.$.$.$.$.$.$.$.$.$.$.$.$.$.$.$.$.$.$.$.$.$.$.$.$.$.$.$.$.$.$.$.$.$.$.$.$.$.$.$.$.$.$.$.$.$.$.",
"$.$.$.$.$.$.$.$.$.$.$.$.$.$.$.$.$.$.$.$.$.$.$.$.$.$.$.$.$.$.$.$.$.$.$.$.$.$.$.$.$.$.$.$.$.$.$.$.$.$.",
"$.$.$.$.$.$.$.$.$.$.$.$.$.$.$.$.$.$.$.$.$.$.$.$.$.$.$.$.$.$.$.$.$.$.$.$.$.$.$.$.$.$.$.$.$.$.$.$.$.$.",
"$.$.$.$.$.$.$.$.$.$.$.$.$.$.$.$.$.$.$.$.$.$.$.$.$.$.$.$.$.$.$.$.$.$.$.$.$.$.$.$.$.$.$.$.$.$.$.$.$.$.",
"$.$.$.$.$.$.$.$.$.$.$.$.$.$.$.$.$.$.$.$.$.$.$.$.$.$.$.$.$.$.$.$.$.$.$.$.$.$.$.$.$.$.$.$.$.$.$.$.$.$.",
"$.$.$.$.$.$.$.$.$.$.$.$.$.$.$.$.$.$.$.$.$.$.$.$.$.$.$.$.$.$.$.$.$.$.$.$.$.$.$.$.$.$.$.$.$.$.$.$.$.$.",
"$.$.$.$.$.$.$.$.$.$.$.$.$.$.$.$.$.$.$.$.$.$.$.$.$.$.$.$.$.$.$.$.$.$.$.$.$.$.$.$.$.$.$.$.$.$.$.$.$.$.",
"$.$.$.$.$.$.$.$.$.$.$.$.$.$.$.$.$.$.$.$.$.$.$.X + + . $ $.$.$.$.$.$.$.$.$.$.$.$.$.$.$.$.$.$.$.$.$.$.",
"$.$.$.$.$.$.$.$.$.$.$.$.$.$.$.$.$.$.$.+ , * , f Y 2 1 2 6 q 6 $.$.$.$.$.$.$.$.$.$.$.$.$.$.$.$.$.$.$.",
"$.$.$.$.$.$.$.$.$.$.$.$.$.$.$.$.$.& 3 8 8 g ~  . .6 y e 3 q k D j - $.$.$.$.$.$.$.$.$.$.$.$.$.$.$.$.",
"$.$.$.$.$.$.$.$.$.$.$.$.$.$.$.; 8 w 8 g ~  .+.+.| 5 u i i e 6 0 n F M 6 $.$.$.$.$.$.$.$.$.$.$.$.$.$.",
"$.$.$.$.$.$.$.$.$.$.$.$.$., w e w g Q X.O.+.+.+.| 7 y y i i y e 3 s G J n 0 $.$.$.$.$.$.$.$.$.$.$.$.",
"$.$.$.$.$.$.$.$.$.$.$., w e w g Q X.+.+.O.O.O.O.| 7 y i i i u i i e 6 s G L M 6 $.$.$.$.$.$.$.$.$.$.",
"$.$.$.$.$.$.$.$.$., 3 8 8 z W X.+.+.O.+.O.O.O.O.| 6 y u u i u i i i u e 8 r M M k 0 $.$.$.$.$.$.$.$.",
"$.$.$.$.$.$.$.$.# - & $ g S { @.@.O.O.O.O.O.O.+. .7 y u u u u i u u i y w ; 5 $ 0 6 % $.$.$.$.$.$.$.",
"$.$.$.$.$.$.$.$.$.$.$.s L H N U | O.+.O.O.O.O.+.[ 5 y u u u u u i y w 3 v _ [ p $.$.$.$.$.$.$.$.$.$.",
"$.$.$.$.$.$.$.$.$.$.$.F P P P H m T | O.O.O.O.+.| 8 y u u u i y w 6 v _ o.#.+.R $.$.$.$.$.$.$.$.$.$.",
"$.$.$.$.$.$.$.$.$.$.q L P P P P ! G m Y | O.+.O.| 8 y u u y 8 8 v _ O.O.+.O.+.| a $.$.$.$.$.$.$.$.$.",
"$.$.$.$.$.$.$.$.$.$.D P P P P P ! P L F m T ] O.| 7 u y 8 8 b ) o.@.O.O.+.O.O.O.R $.$.$.$.$.$.$.$.$.",
"$.$.$.$.$.$.$.$.$.s L P P P P P P P P P ! F B T ~ 5 4 8 v ) O.+.+.O.O.O.+.O.O.#.[ f $.$.$.$.$.$.$.$.",
"$.$.$.$.$.$.$.$.$.2 k J P P P P P P P L P P P H r + x ) o.O.O.O.O.O.O.O.+.+.O.` S $.$.$.$.$.$.$.$.$.",
"$.$.$.$.$.$.$.$.$.$.$.: j J I P P P P P P P P L = # U O.O.O.@.O.O.O.O.@.O.] C < $.$.$.$.$.$.$.$.$.$.",
"$.$.$.$.$.$.$.$.$.$.$.$.. % j J P P P P P L P l . : x ] O.O.O.O.O.@.o.` S C g $.$.$.$.$.$.$.$.$.$.$.",
"$.$.$.$.$.$.$.$.$.$.$.$.    . $ j J P P P P J =   : M U O.O.O.@.o.` U N ( o.Y $.$.$.$.$.$.$.$.$.$.$.",
"$.$.$.$.$.$.$.$.$.$.$.$.          % j J P I l .   1 L x ] O.O.` S V ( o. ./ V $.$.$.$.$.$.$.$.$.$.$.",
"$.$.$.$.$.$.$.$.$.$.$.$.; ; o o .   . % j F =     : P D U ` U N ^ o.X.~ Z h g $.$.$.$.$.$.$.$.$.$.$.",
"$.$.$.$.$.$.$.$.$.$.$.$.w i y y 4 1 1 1 $ = O .   : L ! v N ( X.+.` W f h B g $.$.$.$.$.$.$.$.$.$.$.",
"$.$.$.$.$.$.$.$.$.$.$.$.w i i i i i u y y t y 3 * r ' ..X.X.O.` T c h A c g h $.$.$.$.$.$.$.$.$.$.$.",
"$.$.$.$.$.$.$.$.$.$.$.$.1 e i i i u i u i i u i e z +.O.O.#.[ p f p h c Y E 6 $.$.$.$.$.$.$.$.$.$.$.",
"$.$.$.$.$.$.$.$.$.$.$.$.$.& 3 e i i i u i u i i e z O.O.O.#.[ p > < T ~ N < $.$.$.$.$.$.$.$.$.$.$.$.",
"$.$.$.$.$.$.$.$.$.$.$.$.$.$.$.& 3 e i i u i i i e z O.O.O.O.[ z b V c 5 $.$.$.$.$.$.$.$.$.$.$.$.$.$.",
"$.$.$.$.$.$.$.$.$.$.$.$.$.$.$.$.$.& 3 t u i u i e z O.O.O.O.X.U c 5 $.$.$.$.$.$.$.$.$.$.$.$.$.$.$.$.",
"$.$.$.$.$.$.$.$.$.$.$.$.$.$.$.$.$.$.$.& 3 t i i e g O.+.o._ N 5 $.$.$.$.$.$.$.$.$.$.$.$.$.$.$.$.$.$.",
"$.$.$.$.$.$.$.$.$.$.$.$.$.$.$.$.$.$.$.$.$.* 3 e e z o._ C 5 $.$.$.$.$.$.$.$.$.$.$.$.$.$.$.$.$.$.$.$.",
"$.$.$.$.$.$.$.$.$.$.$.$.$.$.$.$.$.$.$.$.$.$.$.& ; 7 N > $.$.$.$.$.$.$.$.$.$.$.$.$.$.$.$.$.$.$.$.$.$.",
"$.$.$.$.$.$.$.$.$.$.$.$.$.$.$.$.$.$.$.$.$.$.$.$.$.$.$.$.$.$.$.$.$.$.$.$.$.$.$.$.$.$.$.$.$.$.$.$.$.$.",
"$.$.$.$.$.$.$.$.$.$.$.$.$.$.$.$.$.$.$.$.$.$.$.$.$.$.$.$.$.$.$.$.$.$.$.$.$.$.$.$.$.$.$.$.$.$.$.$.$.$.",
"$.$.$.$.$.$.$.$.$.$.$.$.$.$.$.$.$.$.$.$.$.$.$.$.$.$.$.$.$.$.$.$.$.$.$.$.$.$.$.$.$.$.$.$.$.$.$.$.$.$.",
"$.$.$.$.$.$.$.$.$.$.$.$.$.$.$.$.$.$.$.$.$.$.$.$.$.$.$.$.$.$.$.$.$.$.$.$.$.$.$.$.$.$.$.$.$.$.$.$.$.$.",
"$.$.$.$.$.$.$.$.$.$.$.$.$.$.$.$.$.$.$.$.$.$.$.$.$.$.$.$.$.$.$.$.$.$.$.$.$.$.$.$.$.$.$.$.$.$.$.$.$.$.",
"$.$.$.$.$.$.$.$.$.$.$.$.$.$.$.$.$.$.$.$.$.$.$.$.$.$.$.$.$.$.$.$.$.$.$.$.$.$.$.$.$.$.$.$.$.$.$.$.$.$.",
"$.$.$.$.$.$.$.$.$.$.$.$.$.$.$.$.$.$.$.$.$.$.$.$.$.$.$.$.$.$.$.$.$.$.$.$.$.$.$.$.$.$.$.$.$.$.$.$.$.$.",
"$.$.$.$.$.$.$.$.$.$.$.$.$.$.$.$.$.$.$.$.$.$.$.$.$.$.$.$.$.$.$.$.$.$.$.$.$.$.$.$.$.$.$.$.$.$.$.$.$.$.",
"$.$.$.$.$.$.$.$.$.$.$.$.$.$.$.$.$.$.$.$.$.$.$.$.$.$.$.$.$.$.$.$.$.$.$.$.$.$.$.$.$.$.$.$.$.$.$.$.$.$.",
"$.$.$.$.$.$.$.$.$.$.$.$.$.$.$.$.$.$.$.$.$.$.$.$.$.$.$.$.$.$.$.$.$.$.$.$.$.$.$.$.$.$.$.$.$.$.$.$.$.$.",
"$.$.$.$.$.$.$.$.$.$.$.$.$.$.$.$.$.$.$.$.$.$.$.$.$.$.$.$.$.$.$.$.$.$.$.$.$.$.$.$.$.$.$.$.$.$.$.$.$.$."
};
