/* XPM */
static char *start_bg[] = {
/* columns rows colors chars-per-pixel */
"50 50 161 2 ",
"   c #261306",
".  c #231A0B",
"X  c #341600",
"o  c #291D14",
"O  c #3B2005",
"+  c #37200C",
"@  c #39240E",
"#  c #3B2A13",
"$  c #2C2828",
"%  c #4C2705",
"&  c #4F2904",
"*  c #442509",
"=  c #482508",
"-  c #452B0D",
";  c #4A2C0B",
":  c #532B03",
">  c #592E03",
",  c #4E320E",
"<  c #523004",
"1  c #5D3303",
"2  c #54340D",
"3  c #58360C",
"4  c #553A0D",
"5  c #5B3D0D",
"6  c #4F3410",
"7  c #553C12",
"8  c #5A3911",
"9  c #563B1C",
"0  c #593C1B",
"q  c #633401",
"w  c #693601",
"e  c #643906",
"r  c #6C3C03",
"t  c #613708",
"y  c #633909",
"u  c #703F03",
"i  c #463727",
"p  c #4D3B24",
"a  c #573E22",
"s  c #5F420F",
"d  c #5C4310",
"f  c #6D4004",
"g  c #63450C",
"h  c #65480D",
"j  c #6C4E0D",
"k  c #744102",
"l  c #7B4600",
"z  c #7F4801",
"x  c #7D5607",
"c  c #7F5806",
"v  c #72520D",
"b  c #7A560B",
"n  c #7D590A",
"m  c #6B4F12",
"M  c #725417",
"N  c #735519",
"B  c #7E5E18",
"V  c #584023",
"C  c #5D462E",
"Z  c #5F503A",
"A  c #6F592F",
"S  c #715726",
"D  c #745923",
"F  c #785D26",
"G  c #614D30",
"H  c #655330",
"J  c #685034",
"K  c #6E5B37",
"L  c #6F5B38",
"P  c #745E35",
"I  c #735F39",
"U  c #796137",
"Y  c #76623E",
"T  c #7A6238",
"R  c #766342",
"E  c #7B6740",
"W  c #72614E",
"Q  c #786755",
"!  c #776857",
"~  c #7D6C52",
"^  c #746658",
"/  c #766B5F",
"(  c #7D6F5A",
")  c #6C6665",
"_  c #746F6D",
"`  c #7E7264",
"'  c #804700",
"]  c #804A01",
"[  c #855B02",
"{  c #8A5E02",
"}  c #835D09",
"|  c #8E6303",
" . c #956602",
".. c #956A07",
"X. c #9B6C03",
"o. c #936A09",
"O. c #9A6E08",
"+. c #9D7005",
"@. c #A26F01",
"#. c #A47201",
"$. c #A97601",
"%. c #AD7901",
"&. c #B17C01",
"*. c #817362",
"=. c #82766A",
"-. c #85796C",
";. c #887D6E",
":. c #887D71",
">. c #8C8176",
",. c #8C827A",
"<. c #928574",
"1. c #928779",
"2. c #95897A",
"3. c #998C7C",
"4. c #A3947E",
"5. c #938B82",
"6. c #9C9183",
"7. c #9C938B",
"8. c #A69A8D",
"9. c #AEA293",
"0. c #B0A495",
"q. c #B3A99D",
"w. c #B6ABA0",
"e. c #B8AEA2",
"r. c #BCB0A3",
"t. c #BAB1A8",
"y. c #C3B6A5",
"u. c #CCBCA5",
"i. c #C5BAAB",
"p. c #CDBEA9",
"a. c #D0BFA6",
"s. c #C4BAB0",
"d. c #CABEB2",
"f. c #CFC0AB",
"g. c #D1C0A7",
"h. c #D3C4AD",
"j. c #D8C7AF",
"k. c #D8C8AF",
"l. c #CDC2B4",
"z. c #CDC4B9",
"x. c #D5C6B2",
"c. c #D8C7B0",
"v. c #D7C8B4",
"b. c #D9CAB4",
"n. c #D2C7B8",
"m. c #D6CAB9",
"M. c #DCCEBA",
"N. c #DED0BD",
"B. c #E1CFB7",
"V. c #E1D0B7",
"C. c #E1D2BD",
"Z. c #D6CCC0",
"A. c #D9CEC3",
"S. c #DED2C1",
"D. c #DFD4CA",
"F. c #E1D4C2",
"G. c #E6D8C5",
"H. c #E8D9C1",
"J. c #E6DACB",
"K. c #EBDDCA",
"L. c #F1E2CC",
/* pixels */
"m.m.M.M.v.M.v.x.m.M.M.m.M.M.b.M.b.b.M.v.b.M.b.b.b.B.M.b.M.m.b.b.x.v.v.M.v.m.m.v.m.M.v.M.M.m.M.m.m.M.",
"M.M.A.M.M.S.M.n.M.B.M.B.B.B.B.M.C.B.B.M.b.M.B.M.b.M.b.M.M.B.M.B.v.M.M.S.M.M.M.A.M.C.M.M.C.M.M.M.M.M.",
"C.M.S.M.M.S.A.m.C.B.M.b.M.b.v.j.h.x.x.h.x.x.x.v.x.v.x.x.h.x.v.h.x.A.N.A.F.M.S.S.S.M.A.C.A.S.M.C.F.S.",
"M.M.M.M.M.M.M.g.x.a.p.p.p.p.x.x.c.v.M.M.B.A.B.B.B.M.B.M.B.M.M.c.x.M.M.M.M.M.M.M.M.M.M.M.M.M.M.m.M.m.",
"x.x.p.p.x.p.x.d.a.x.x.v.x.M.v.x.v.x.x.x.x.x.x.x.p.x.x.v.x.x.x.x.h.x.x.h.h.h.x.p.d.x.h.x.x.l.x.n.x.a.",
"A.S.C.M.M.M.m.M.b.M.b.M.M.M.v.c.M.M.M.M.M.M.b.M.B.M.M.M.M.M.M.M.M.M.M.M.M.M.M.m.M.F.F.F.F.N.F.F.F.F.",
"C.C.C.S.C.F.C.C.S.S.M.M.M.C.M.m.M.B.M.B.M.M.M.M.A.B.C.M.B.M.M.M.M.N.C.M.M.M.M.M.M.C.C.C.M.C.M.C.S.C.",
"B.C.C.S.M.B.M.M.M.B.S.C.M.C.M.v.b.b.m.b.v.b.b.v.v.v.b.v.m.M.v.v.c.m.c.c.m.v.c.x.m.C.M.M.C.C.C.C.C.C.",
"n.n.v.v.v.x.x.n.x.x.x.x.x.x.h.h.h.h.h.x.j.x.x.h.x.p.a.x.p.p.h.a.f.p.n.v.n.x.n.x.x.v.v.v.n.v.v.n.x.n.",
"F.F.F.S.F.F.A.F.M.p.x.x.c.c.m.b.m.M.M.b.m.b.m.m.M.M.b.M.M.M.M.v.x.x.M.F.S.F.F.F.S.F.S.F.F.F.F.S.S.S.",
"B.A.A.C.M.S.A.M.m.v.m.b.b.m.v.v.c.c.v.x.c.c.v.v.c.v.b.b.M.M.M.M.M.v.M.M.M.M.M.S.A.M.A.C.M.M.M.S.C.M.",
"S.F.M.S.F.F.F.F.M.m.C.B.M.M.C.C.B.M.M.C.C.M.C.C.C.S.S.C.B.M.B.B.M.x.M.F.S.S.S.S.F.M.M.M.M.M.M.M.M.S.",
"x.d.x.x.x.x.m.v.x.h.x.x.h.x.j.a.x.m.C.f.j.B.g.j.x.x.n.v.v.F.d.d.J.M.v.n.n.v.v.v.v.x.v.x.v.n.v.v.n.v.",
"M.b.B.b.b.b.M.B.B.M.B.m.b.b.C.H.M.e.>.U *.q.C.V.b.x.A.K.A.7.P P :.e.A.K.K.F.A.F.A.F.S.S.S.S.S.S.F.F.",
"M.b.M.M.B.M.M.M.M.b.B.C.H.Z.e.:.P N [ @. .M *.e.H.V.n.7.I [ @.@.[ M I 1.e.D.K.K.F.G.F.G.F.F.F.F.F.F.",
"M.v.M.b.M.v.c.c.v.C.M.w.<.I N [ @.$.%.#.$.&.X.m *.5.P { @.%.#.#.%.$.@.[ N L 5.e.G.M.A.M.S.M.S.M.A.F.",
"f.h.x.x.c.m.c.m.x.3.H B [ @.$.%.#.#.%.%.#.} m 4 :   4 n +.#.%.$.#.#.#.%.$.$.{ 4 _ C.n.v.m.v.n.v.h.n.",
"v.c.c.c.c.c.c.k.h.8.R x #.%.#.$.%.#.} m 6 3 t l l r : * - 5 b ..%.%.#.$.$.[ F <.i.C.M.M.N.N.M.N.c.v.",
"x.h.j.h.j.j.h.h.j.b.v.8.R b %.} h 2 2 t l l ] z l q q w q : * - 4 b O...S 2.d.G.C.M.M.M.M.M.M.N.h.h.",
"c.c.c.c.x.j.x.j.j.h.j.c.H.) . 4 e ' ' ' l l l l l 1 1 q 1 q w w > * @ $ d.K.F.M.N.S.S.F.F.S.S.S.h.c.",
"f.f.f.f.p.p.p.p.h.f.p.x.y.J g 8 3 t k z ] l l l l 1 q 1 w w 1 & = , g 7 6.S.v.m.m.m.m.m.m.m.v.m.f.f.",
"N.S.N.N.S.S.S.m.M.M.G.z.P X.%.#.| v 7 , 1 k z ] l w q q & * - g b #.$.%.b 6.J.M.S.S.S.S.S.S.S.S.S.S.",
"N.N.S.N.A.C.N.v.M.G.z.U X.$.#.#.$.%.#.| v 7 , t k : - # s b +.%.%.#.#.#.%.} 3.J.M.M.S.N.N.S.N.N.N.N.",
"F.S.D.S.F.S.F.M.K.m.U X.$.#.#.#.#.#.$.$.%.#...s o # | +.%.%.$.#.#.#.#.#.@.&.[ 8.G.S.S.F.S.S.S.S.S.S.",
"N.N.N.N.M.N.N.b.l.H  .&.%.%.#.#.#.#.#.#.#.$.X.5 + ; n &.#.#.#.#.#.@.$.#.#. .} p i.F.M.N.N.N.N.N.N.N.",
"v.v.n.m.n.m.n.n.i.=.T m { X.&.$.#.#.#.#.$.O.2 > * : = v %.#.#.$.%.%.O...D *.8.l.v.b.n.v.n.c.n.b.b.n.",
"b.b.b.b.b.b.b.f.c.C.d.w.;.R g o.$.%.$.$.O., : w - y w = v %.$.O.b d O i s.H.C.C.M.M.M.M.b.M.b.b.M.b.",
"b.b.b.b.v.b.c.h.b.x.m.M.L.,.X ; 4 h o...2 : w k , r k q = g g - = & q a x.h.x.c.v.c.v.b.c.c.b.v.v.v.",
"b.b.c.k.b.v.v.x.M.M.M.v.H.>.> w > * ; - > q u ] ; f ] u e % & q w f k a l.b.m.v.v.v.v.v.b.n.v.n.v.b.",
"u.u.u.u.u.u.u.y.u.u.u.u.j.=.q l k r q 1 1 k l ] , r l l k r u k l z l a r.g.u.i.p.p.p.p.u.u.p.u.y.g.",
"h.h.h.h.h.h.h.j.j.g.j.h.V.:.1 ] l l k u k z l z ; f ] l l l l l l l l V n.N.M.M.M.M.M.M.N.M.N.N.f.h.",
"h.h.h.h.j.h.h.h.h.h.g.g.V.:.w ] l l l ' l l l z , r l l l l l l l l l V n.V.M.M.M.M.M.M.b.N.N.b.h.j.",
"k.h.j.c.h.j.j.g.g.j.j.g.V.;.q ] l l l l l l l z , f z l l l l l l l l V l.N.c.b.b.M.b.M.b.b.M.v.g.k.",
"u.u.u.u.u.u.u.u.u.a.a.u.k.;.q ] l l l l l l l z ; r l l l l l l l l l V z.m.m.m.m.n.f.u.u.f.f.u.u.u.",
"h.h.g.g.h.h.h.j.g.j.j.h.V.;.w ] l l l l l l l z , r z l l l l l l l ' V Z.G.F.J.G.G.l.g.g.g.g.g.g.g.",
"b.b.b.b.b.b.b.b.k.b.k.k.C.2.: l l ] l l l l l z ; f z l l l l ] ] l w C D.G.F.F.S.S.c.c.b.M.b.b.b.b.",
"k.k.c.c.c.c.k.k.c.c.k.k.b.c.2.C 8 w k ] ] l l z ; f ] l z ] ' w t a Q i.F.F.G.G.S.J.b.j.b.c.c.c.k.c.",
"h.h.h.h.h.f.f.f.g.f.f.g.h.g.c.f.9.` G 3 w k l x , f ] l r t 9 W 1.i.M.B.n.v.c.c.b.b.h.g.g.h.h.h.h.h.",
"b.b.b.c.c.c.c.h.c.v.n.j.c.c.j.c.b.C.x.0.` J 4 f O 1 t 0 Q 3.p.V.C.B.k.b.b.b.k.b.v.k.k.b.h.v.c.v.v.b.",
"k.k.k.j.n.h.g.g.g.g.g.g.h.h.n.c.j.j.b.c.C.n.r.( / ^ 6.l.C.C.V.b.b.B.M.b.b.M.B.b.M.b.b.b.h.b.b.b.v.v.",
"h.h.h.x.h.h.h.x.f.f.h.j.h.j.x.x.j.k.x.f.x.b.M.H.H.H.N.b.b.k.b.x.j.j.c.c.v.v.v.v.b.k.k.v.f.c.k.k.c.c.",
"h.x.x.h.j.x.h.h.v.h.h.h.h.x.x.x.h.h.h.f.g.g.u.f.f.g.g.f.g.f.f.h.h.n.h.v.c.h.c.c.h.c.c.v.f.f.f.f.h.f.",
"b.b.b.b.b.x.h.h.h.h.j.h.h.j.h.j.h.h.h.h.h.h.h.x.g.f.h.h.h.x.f.x.v.v.b.v.v.v.b.v.b.b.b.v.b.b.v.b.b.b.",
"b.b.k.b.b.x.j.j.k.c.h.g.g.h.g.f.h.g.g.g.g.g.g.g.g.g.g.g.f.g.g.k.b.b.b.b.b.b.m.b.b.b.v.v.v.b.b.b.b.b.",
"j.j.k.j.k.g.g.g.g.g.g.g.h.h.g.h.g.h.h.h.h.h.h.h.h.h.h.h.g.h.g.x.b.v.k.v.v.b.c.c.v.v.v.v.v.v.k.k.c.c.",
"f.x.f.f.f.f.f.f.f.g.f.f.g.f.f.g.g.f.f.g.g.f.g.g.g.f.g.g.g.g.f.f.g.g.f.f.f.h.h.c.v.v.b.b.b.v.v.v.n.f.",
"f.x.x.h.h.j.h.h.h.h.j.x.h.h.h.x.x.h.h.x.h.h.x.x.f.f.f.f.g.g.h.j.h.j.c.n.c.n.h.h.h.h.h.h.n.h.n.h.c.c.",
"h.M.b.b.b.b.b.b.v.b.b.b.b.v.b.b.b.k.b.b.k.b.b.b.h.x.b.b.M.M.M.C.N.N.N.M.N.N.N.N.N.N.b.b.v.v.v.b.b.c.",
"x.b.b.b.b.b.b.b.k.b.b.b.b.b.M.b.b.b.b.b.b.M.M.M.x.m.N.N.N.M.V.N.M.M.V.C.N.N.C.C.C.V.N.C.C.V.C.N.V.N.",
"h.k.h.j.j.k.b.k.x.b.b.b.b.k.k.x.k.x.k.x.k.x.j.k.h.b.N.M.M.N.M.M.V.M.N.N.N.C.N.M.M.M.N.M.N.N.b.M.N.b."
};
