/* XPM */
static char *steak_bg[] = {
/* columns rows colors chars-per-pixel */
"50 50 145 2 ",
"   c #170000",
".  c #1C0000",
"X  c #240500",
"o  c #250901",
"O  c #2A0C02",
"+  c #300E05",
"@  c #2E1005",
"#  c #321206",
"$  c #33150A",
"%  c #39170B",
"&  c #35180D",
"*  c #3B190C",
"=  c #371C15",
"-  c #3C1F12",
";  c #3D2217",
":  c #3F2319",
">  c #4A0E00",
",  c #4D1504",
"<  c #4F1907",
"1  c #441C0C",
"2  c #4A1F0E",
"3  c #501707",
"4  c #511A07",
"5  c #531D0B",
"6  c #4C200F",
"7  c #55200E",
"8  c #5A210F",
"9  c #4C2110",
"0  c #46291C",
"q  c #532413",
"w  c #5A2513",
"e  c #562B14",
"r  c #5A2D16",
"t  c #5D2E1A",
"y  c #5C3017",
"u  c #5E3119",
"i  c #632917",
"p  c #632D1A",
"a  c #692F1A",
"s  c #64341C",
"d  c #6A331E",
"f  c #6A381F",
"g  c #4D342A",
"h  c #523628",
"j  c #543B2E",
"k  c #673625",
"l  c #6D3520",
"z  c #673826",
"x  c #6E3A21",
"c  c #6B3B2A",
"v  c #733623",
"b  c #743C24",
"n  c #7A3927",
"m  c #743C29",
"M  c #7C3B29",
"N  c #5B443C",
"B  c #6E412E",
"V  c #7A4127",
"C  c #74412E",
"Z  c #7D422A",
"A  c #6D4130",
"S  c #634B3E",
"D  c #724635",
"F  c #744937",
"G  c #764938",
"H  c #7A4D3B",
"J  c #7C5342",
"K  c #7B6655",
"L  c #7E6959",
"P  c #813F2B",
"I  c #84432D",
"U  c #89462F",
"Y  c #864A2E",
"T  c #8A492F",
"R  c #874530",
"E  c #894730",
"W  c #8D4B31",
"Q  c #924E34",
"!  c #955036",
"~  c #9B5337",
"^  c #975538",
"/  c #9D5539",
"(  c #9E583B",
")  c #A1573A",
"_  c #A45A3C",
"`  c #825A49",
"'  c #A65F40",
"]  c #88634E",
"[  c #8A6551",
"{  c #8D6A57",
"}  c #8F6E5B",
"|  c #AB6243",
" . c #B26747",
".. c #B36847",
"X. c #B46948",
"o. c #BD6F4E",
"O. c #857160",
"+. c #8D796B",
"@. c #977564",
"#. c #987764",
"$. c #957F70",
"%. c #948375",
"&. c #A38773",
"*. c #A59281",
"=. c #AE9583",
"-. c #AE9D8D",
";. c #B19685",
":. c #B69F8D",
">. c #B09F90",
",. c #B1A08D",
"<. c #B9A18B",
"1. c #B5A494",
"2. c #BCA694",
"3. c #BEA997",
"4. c #B5A698",
"5. c #BDAA9A",
"6. c #BEB09F",
"7. c #C1AD96",
"8. c #C0AD9B",
"9. c #C2B29D",
"0. c #C6B5A1",
"q. c #C8B7A0",
"w. c #C7B8A4",
"e. c #CCBCA5",
"r. c #CEBEA9",
"t. c #D0BEA6",
"y. c #CFC0AB",
"u. c #D2C1A7",
"i. c #D3C4AD",
"p. c #D8C7AF",
"a. c #D8C8AF",
"s. c #D5C6B2",
"d. c #D8C7B0",
"f. c #D7C8B4",
"g. c #DACAB5",
"h. c #D7CAB8",
"j. c #DCCEBA",
"k. c #DED0BD",
"l. c #E0D2BC",
"z. c #DFD2C1",
"x. c #E1D4C3",
"c. c #E4D9C6",
"v. c #E5DAC9",
"b. c #EADECA",
"n. c #EEE2CF",
/* pixels */
"h.h.h.h.h.h.h.s.g.g.j.g.j.j.j.j.g.g.g.g.g.j.g.g.j.j.j.g.j.g.g.g.r.h.h.f.h.h.r.j.h.h.h.h.f.g.h.f.h.g.",
"j.j.j.z.x.j.z.f.l.j.j.l.j.l.l.x.l.l.l.j.j.l.j.g.g.g.j.l.j.j.l.l.f.z.z.z.j.l.j.z.z.z.j.j.j.z.z.z.z.z.",
"l.j.z.j.j.z.j.h.c.l.j.z.g.g.g.r.g.t.t.d.t.g.g.r.a.d.t.t.g.t.t.t.d.x.z.z.z.z.z.z.z.z.z.z.z.z.z.z.z.z.",
"j.j.j.j.j.z.j.r.r.t.t.t.t.t.t.g.g.g.j.j.j.z.z.z.l.l.z.l.z.j.j.j.r.z.g.k.g.j.j.j.j.j.g.j.z.g.g.j.f.j.",
"f.r.r.r.s.s.s.r.t.r.h.r.f.j.j.r.r.g.t.g.r.j.r.g.g.r.g.r.r.t.g.r.r.r.f.r.r.r.r.r.r.r.t.r.r.h.r.j.r.t.",
"x.l.z.j.h.h.j.h.j.g.j.j.j.j.f.f.j.j.j.j.j.j.g.j.z.j.j.j.x.l.j.x.k.g.z.k.z.z.z.g.z.v.x.x.x.c.z.z.c.x.",
"z.k.l.z.l.z.l.l.x.l.j.z.j.z.j.f.j.j.j.j.j.j.j.j.j.j.j.z.z.j.j.j.l.k.k.k.z.k.z.h.j.x.j.l.z.l.l.l.x.z.",
"k.l.z.l.l.j.j.l.j.j.l.j.j.z.k.g.j.j.g.g.g.g.g.g.g.g.g.g.g.g.g.g.f.f.d.g.f.d.f.d.g.z.j.l.z.l.l.l.l.z.",
"f.f.h.h.f.r.h.h.r.r.h.r.r.f.d.r.i.s.r.i.s.s.s.i.t.r.t.r.r.t.r.r.r.r.s.h.r.h.r.h.s.h.s.s.s.h.s.s.d.f.",
"x.x.x.z.x.z.x.x.z.r.f.h.d.a.g.j.h.j.j.j.h.g.g.h.j.z.g.j.x.j.j.z.j.s.z.x.x.x.x.x.x.x.z.z.z.z.z.z.z.z.",
"j.j.z.j.z.k.k.k.h.h.j.j.j.a.g.g.d.f.f.s.d.d.f.f.r.g.g.t.z.r.g.f.h.r.f.h.h.z.z.z.z.z.j.j.z.j.j.z.k.j.",
"z.z.z.z.z.x.z.x.g.g.k.j.j.j.j.l.j.l.l.l.l.l.l.l.x.x.j.` k c c v c c c c c w.x.h.z.j.z.j.j.z.j.z.k.z.",
"r.r.r.f.d.f.g.g.r.f.d.t.f.t.t.a.s.a.i.d.a.d.a.a.h.j.z.c 3 8 5 8 5 8 7 5 5 w.z.h.r.h.s.s.f.s.s.h.r.h.",
"z.z.j.g.j.g.j.j.j.l.j.j.j.l.g.j.g.j.g.g.g.g.g.g.r.>.4.M a d v a d a l v v ;.6.0.z.x.x.x.z.z.z.z.c.c.",
"h.g.k.k.j.j.j.j.g.j.j.j.j.j.j.j.j.g.j.g.g.j.g.x.;., w P P E Q Q R I E ' ' p > G v.z.x.x.x.x.x.x.c.c.",
"h.h.g.g.g.g.g.d.g.g.g.j.j.j.j.a.j.j.g.j.j.g.j.v.;.5 p P E P Q E R P E ) ) l 3 J v.z.z.z.z.j.z.j.j.z.",
"y.i.f.f.f.f.f.f.f.f.f.f.f.f.f.d.a.d.d.f.f.r.J G C t s ( | _ / / P n M U U n v M D c 6.j.h.h.f.h.i.f.",
"f.f.p.d.f.f.p.p.f.a.a.f.d.d.d.d.d.g.d.h.l.i.r 3 w y s |  .| ) ) P v M I I M M v 8 4 2.c.j.l.j.j.s.g.",
"i.i.i.i.i.i.i.i.i.p.i.p.i.p.s.i.i.a.a.e.7.2.m a f x b ^ / / / / U P P Z M M b v q 2 2.c.h.j.j.z.i.i.",
"p.a.p.p.a.a.f.s.p.i.i.p.i.p.s.i.i.i.g.&.5 p ) _ ) _ / s y x Q W ) ) Q u p V T M $ o 4.b.z.z.z.z.f.i.",
"y.y.y.y.r.r.r.r.i.y.i.i.y.r.f.f.d.d.l.&.4 a ) ) ) ) ~ s r x Q W ) _ Q u u M U m $ O -.z.h.h.h.h.y.y.",
"k.z.k.k.z.z.z.h.j.k.k.k.j.x.=.J ` ` ` H v v x f Y | ' ! ! Y f x W Q W M Z f f t + O 4.b.z.z.z.z.z.z.",
"k.z.z.k.k.z.z.f.k.k.k.k.j.b.#.> 7 4 < i M v u e I .. ._ _ T r y Y Q E I R f u t $ O 1.c.h.z.j.j.k.k.",
"z.c.z.z.x.z.x.k.x.z.c.z.s.z.#.5 p a p v P M s s V ' ( ) _ ! s f U Q E I I s t e $ O 1.b.z.z.z.z.z.z.",
"k.k.k.k.k.j.j.h.k.j.z.0.t t t u f Q T ~ ) ~ n M x s s ' | ' ) ) E I P n n q 2 2 $ O 1.v.z.j.j.j.k.j.",
"f.f.f.h.f.h.h.y.f.s.z.5.7 w t u s Q Q ~ ) ~ n n f y s ' ..' ) ) R R I M M w 2 2 O o -.l.s.f.h.f.f.h.",
"h.g.g.g.g.h.h.y.s.i.j.2.w w l M b b f T | _ Q Q Q T Q V b Y | ' P M b w w 1 + h 1.:.i.j.h.j.g.j.j.g.",
"h.f.g.g.f.f.f.s.g.f.k.3.w w v E Z y e Y .. ._ _ ) _ ) s e V ..| P M l 2 9 & o j x.k.d.f.f.f.h.f.f.f.",
"g.g.g.g.f.f.f.s.k.h.k.3.w w b E I f s Y | ' ( ) ) ) ~ f s V | _ Z b l 2 6 % o j g.f.f.f.f.f.f.f.f.j.",
"e.e.e.9.e.e.e.9.i.} u C U I E W Q _ | Y u f ' | _ ) ) I I b s s 7 6 2 2 9 % O j i.e.w.r.r.e.r.w.w.e.",
"i.i.i.i.p.i.i.i.k.] , a I M E Q ~ | X.Y e s  ...| ) ) I U b y y 6 6 6 6 6 # . g z.h.k.k.k.j.j.j.i.i.",
"i.i.i.p.u.i.i.i.g.[ < v ( ( W U W ^ ^ ^ Q Q V V Y Q Q T T I x x 6 6 6 % * %.*.,.k.j.j.j.j.j.k.g.i.i.",
"a.g.g.a.a.a.p.a.l.[ 3 v ....! I U W T ( ..' u r l I I W ! E M M q 2 1 O @ w.b.k.f.g.g.j.j.h.g.h.i.a.",
"9.9.9.u.t.9.9.9.p.{ r V | | Q I T Q W ( | ' s u x U R E W I v v q 2 9 ; ; 6.j.h.h.h.y.e.e.r.y.e.9.e.",
"u.p.p.p.u.i.i.i.u.u.i.<.i i Y | _ / ( ( ) / E E P M n q q q q 9 = o J z.f.c.v.v.c.z.s.e.u.i.u.u.u.i.",
"a.g.g.a.g.j.g.g.a.g.l.7.e 7 Q o..._ ) _ ' _ ! ~ E M M 9 2 6 9 9 o   N v.x.c.x.x.z.z.f.f.g.g.g.g.g.g.",
"a.a.p.f.p.p.p.p.p.i.j.2.1 1 u m b Z Y V b b f f k i p 1 * * * 1 +.%.-.c.z.x.x.x.c.v.g.i.a.a.a.a.d.a.",
"i.p.i.i.i.y.u.y.u.y.p.,.O O O o # u y q 1 1 1 6 1 2 1 # O # O & y.c.j.p.f.f.g.g.f.g.i.u.u.i.i.i.i.i.",
"g.g.g.f.p.f.p.s.p.s.j.<.$ & & $ * s s e 2 7 6 6 9 q 2 & & & $ = 9.g.a.a.g.a.a.a.a.a.g.g.i.f.f.f.d.g.",
"a.a.p.p.i.i.y.u.u.u.u.e.6.6.9.w.,.- % % % % % & % # 0 8.q.q.q.q.g.k.j.l.j.j.j.g.j.g.g.g.i.g.g.d.a.g.",
"p.a.p.a.i.i.p.i.y.y.i.p.p.h.g.k.9.O . o o o O o o . ; i.j.j.k.g.p.f.i.p.p.f.d.d.g.g.f.g.y.i.p.p.a.i.",
"i.i.i.i.p.i.i.i.s.s.i.i.i.i.y.p.q.K L K K K K K L K L u.i.y.y.i.i.i.f.f.i.p.f.f.p.i.p.f.y.u.y.y.i.i.",
"h.h.g.a.g.i.i.i.i.p.i.p.p.i.p.p.p.k.k.j.k.j.k.j.k.k.j.p.i.p.y.i.f.h.g.f.h.f.h.d.f.f.g.f.h.g.h.g.g.h.",
"h.a.h.h.g.s.i.p.p.i.i.u.u.i.u.i.u.t.t.u.u.u.t.e.t.e.e.u.t.t.y.a.g.g.g.g.g.g.g.g.g.g.d.g.g.g.g.g.g.h.",
"p.a.a.h.a.i.u.u.u.y.u.i.i.u.y.i.i.u.i.u.i.u.i.i.i.i.i.i.i.i.u.p.d.p.f.f.d.h.a.f.d.g.d.d.p.p.p.p.i.d.",
"y.i.y.u.y.y.y.y.u.y.u.y.u.y.y.u.y.y.u.y.u.y.y.y.u.u.e.e.e.u.e.y.i.u.u.i.y.y.i.f.f.h.h.h.h.h.f.f.s.i.",
"y.p.i.i.p.i.i.i.y.i.i.i.i.i.y.i.i.p.i.a.i.i.a.a.y.y.u.u.u.u.i.p.y.i.i.s.f.s.s.i.s.i.i.i.i.f.s.s.d.d.",
"i.j.g.h.g.g.g.g.h.g.g.g.g.g.g.g.g.a.h.a.a.h.h.h.p.a.g.g.j.j.k.k.z.k.k.k.k.k.k.k.k.j.g.f.f.d.f.h.g.h.",
"p.g.h.a.g.h.g.g.h.a.g.g.g.g.g.g.g.g.g.g.j.g.k.g.a.g.k.k.k.k.j.k.k.k.l.l.k.l.l.l.l.g.l.l.l.l.l.l.l.j.",
"y.a.p.a.a.a.h.a.a.a.g.a.a.g.a.h.a.a.p.a.p.s.a.h.i.h.k.k.j.j.j.j.g.k.k.l.l.k.l.g.k.k.l.j.l.g.j.j.j.g."
};
