/* XPM */
static char *wall[] = {
/* columns rows colors chars-per-pixel */
"50 50 167 2 ",
"   c #102F1F",
".  c #182E1F",
"X  c #183517",
"o  c #1D3A15",
"O  c #16341B",
"+  c #1A361A",
"@  c #1C391C",
"#  c #203A1D",
"$  c #0E2C25",
"%  c #142C24",
"&  c #1C2324",
"*  c #1A3421",
"=  c #292725",
"-  c #222C24",
";  c #2C2D25",
":  c #252829",
">  c #232424",
",  c #302F27",
"<  c #342E2C",
"1  c #233620",
"2  c #2A3325",
"3  c #253E23",
"4  c #253428",
"5  c #283028",
"6  c #26382C",
"7  c #303025",
"8  c #393B27",
"9  c #343428",
"0  c #3C312C",
"q  c #3D3F2A",
"w  c #373B24",
"e  c #3B3431",
"r  c #403A37",
"t  c #4A3A33",
"y  c #463D39",
"u  c #483D39",
"i  c #274016",
"p  c #27411B",
"a  c #28411A",
"s  c #344C1D",
"d  c #3B4F1F",
"f  c #33461C",
"g  c #3C511F",
"h  c #254023",
"j  c #294227",
"k  c #2D432B",
"l  c #304625",
"z  c #334827",
"x  c #324529",
"c  c #3E402A",
"v  c #344B2A",
"b  c #384B2C",
"n  c #3E512A",
"m  c #3D4832",
"M  c #3C5332",
"N  c #43452F",
"B  c #484C2A",
"V  c #444B2B",
"C  c #425425",
"Z  c #4A5A26",
"A  c #415229",
"S  c #4C5C2E",
"D  c #455C24",
"F  c #50562B",
"G  c #434531",
"H  c #494C32",
"J  c #484933",
"K  c #544137",
"L  c #5B4631",
"P  c #5B4831",
"I  c #53463E",
"U  c #5D4639",
"Y  c #5F483A",
"T  c #524E3D",
"R  c #4D5132",
"E  c #465E36",
"W  c #535D32",
"Q  c #595E37",
"!  c #505139",
"~  c #6D503F",
"^  c #57642E",
"/  c #5B662D",
"(  c #56692C",
")  c #5F682D",
"_  c #4F6438",
"`  c #5C6434",
"'  c #5C6E30",
"]  c #556D3A",
"[  c #556432",
"{  c #5C723C",
"}  c #616A2F",
"|  c #676E3A",
" . c #686F3B",
".. c #667537",
"X. c #6B7536",
"o. c #6C7837",
"O. c #63723C",
"+. c #6B743D",
"@. c #677A3C",
"#. c #6D7939",
"$. c #727D37",
"%. c #707C38",
"&. c #554942",
"*. c #5A4B41",
"=. c #615440",
"-. c #685543",
";. c #67564D",
":. c #6C5A4E",
">. c #705444",
",. c #727B40",
"<. c #6D6056",
"1. c #716055",
"2. c #776C62",
"3. c #786C63",
"4. c #7F7367",
"5. c #8B5D3D",
"6. c #986B4B",
"7. c #8B6E57",
"8. c #966C50",
"9. c #94775E",
"0. c #A27555",
"q. c #A67A5A",
"w. c #AB7A59",
"e. c #8B7160",
"r. c #9F7E63",
"t. c #758339",
"y. c #7C883E",
"u. c #7B863E",
"i. c #778142",
"p. c #788241",
"a. c #818D44",
"s. c #869147",
"d. c #8A9745",
"f. c #8E9C46",
"g. c #849648",
"h. c #919F4A",
"j. c #93A24A",
"k. c #9DAC4E",
"l. c #9EAE50",
"z. c #A0AF4F",
"x. c #A0B04E",
"c. c #A3B251",
"v. c #9E907C",
"b. c #A88266",
"n. c #B68A6B",
"m. c #A08673",
"M. c #AD8C74",
"N. c #AB8E79",
"B. c #BA8F71",
"V. c #AF927C",
"C. c #B79276",
"Z. c #B99276",
"A. c #B2957F",
"S. c #C09677",
"D. c #C2997C",
"F. c #BA9A84",
"G. c #CBA587",
"H. c #C4A58B",
"J. c #CCA68A",
"K. c #CEAB8F",
"L. c #CFAC90",
"P. c #D0AE92",
"I. c #D2B295",
"U. c #D5B699",
"Y. c #D3BB9D",
"T. c #D9BD9F",
"R. c None",
/* pixels */
"R.R.R.R.R.R.R.R.R.R.R.R.R.R.R.R.R.R.R.R.R.R.R.R.R.R.R.R.R.R.R.R.R.R.R.R.R.R.R.R.R.R.R.R.R.R.R.R.R.R.",
"R.R.R.R.R.R.R.R.R.R.R.R.R.R.R.R.R.R.R.R.R.R.R.R.R.R.R.R.R.R.R.R.R.R.R.R.R.R.R.R.R.R.R.R.R.R.R.R.R.R.",
"R.R.R.R.R.R.R.R.R.R.R.R.R.R.R.R.R.R.R.R.R.R.R.R.R.R.R.R.R.R.R.R.R.R.R.R.R.R.R.R.R.R.R.R.R.R.R.R.R.R.",
"R.R.R.R.R.R.R.R.R.R.R.R.R.R.R.R.R.R.R.R.R.R.R.R.R.R.R.R.R.R.R.R.R.R.R.R.R.R.R.R.R.R.R.R.R.R.R.R.R.R.",
"R.R.R.R.R.R.R.R.R.R.R.R.R.R.R.R.R.R.R.R.R.R.R.R.R.R.R.R.R.R.R.R.R.R.R.R.R.R.R.R.R.R.R.R.R.R.R.R.R.R.",
"R.R.R.R.R.R.R.R.R.R.R.R.R.R.R.R.R.R.R.R.R.R.R.R.R.R.R.R.R.R.R.R.R.R.R.R.R.R.R.R.R.R.R.R.R.R.R.R.R.R.",
"R.R.R.R.R.R.R.R.R.R.R.R.R.R.R.R.R.R.R.R.R.R.R.R.R.R.R.R.R.R.R.R.R.R.R.R.R.R.R.R.R.R.R.R.R.R.R.R.R.R.",
"R.R.R.R.R.R.R.R.R.R.R.R.R.R.R.R.R.R.R.R.R.R.R.R.R.R.R.R.R.R.R.R.R.R.R.R.R.R.R.R.R.R.R.R.R.R.R.R.R.R.",
"R.R.R.R.R.R.R.R.R.R.R.R.R.R.R.R.R.R.R.R.R.R.R.R.R.R.R.R.R.R.R.R.R.R.R.R.R.R.R.R.R.R.R.R.R.R.R.R.R.R.",
"R.R.R.R.R.R.R.R.R.R.R.R.R.R.R.R.R.R.R.R.R.R.R.R.R.R.R.R.R.R.R.R.R.R.R.R.R.R.R.R.R.R.R.R.R.R.R.R.R.R.",
"R.R.R.R.R.R.R.R.R.R.R.R.R.R.R.R.R.R.R.R.R.R.R.R.R.R.R.R.R.R.R.R.R.R.R.R.R.R.R.R.R.R.R.R.R.R.R.R.R.R.",
"R.R.R.R.R.R.R.R.R.R.R.R.R.R.R.R.R.R.R.R.R.R.R.R.R.R.R.R.R.R.R.R.R.R.R.R.R.R.R.R.R.R.R.R.R.R.R.R.R.R.",
"R.R.R.R.R.R.R.R.R.R.R.R.R.R.R.R.R.R.R.R.R.R.R.R.R.R.R.R.R.R.R.R.R.R.R.R.R.R.R.R.R.R.R.R.R.R.R.R.R.R.",
"R.R.R.R.R.R.R.R.R.R.R.R.R.R.R.R.= 7 R.R.R.R., 7 R.R.R.R.R.R.R.R.R.R.R.R.R.R.R.R.R.R.R.R.R.R.R.R.R.R.",
"R.R.R.R.R.R.R.R.R.R.R.R.R.R.R.R., W +.R.R.7 F X.+.R.R.R.N G R.R.R.R.R.R.R.R.R.R.R.R.R.R.R.R.R.R.R.R.",
"R.R.R.R.R.R.R.R.R.R.R.R.R.R.R.R.R.8 %.W : 5 ^ %.h.W : R j. .R.R.R.R.R.R.R.R.R.R.R.R.R.R.R.R.R.R.R.R.",
"R.R.R.R.R.R.R.R.R.R.R.R.R.R.R.R.> - b 3 % % z Z %.M x y.z.O.& R.c B ` ` J R.R.R.R.R.R.R.R.R.R.R.R.R.",
"R.R.R.R.R.R.R.R.R.R.R.R.R.R.c B | { k $ k { ] 3 Z x @.k.x.O.O B y.f.z.p.G R.R.R.R.R.R.R.R.R.R.R.R.R.",
"R.R.R.R.R.R.R.R.R.R.R.R.R.R.8 q s.f.` A x ..j.{ p A o.j.k.] l t.j.l.i.G R.R.R.R.R.R.R.R.R.R.R.R.R.R.",
"R.R.R.R.R.R.R.R.R.R.R.R.R.R.R.R.q ^ n p O S $.j._ A } X.[ 3 i s D ,.G R.R.R.R.R.R.R.R.R.R.R.R.R.R.R.",
"R.R.R.R.R.R.R.R.R.R.R.R.R.R.R.R.V M M h $ n ) $._ z / / z + o X + = R.R.R.R.R.R.R.R.R.R.R.R.R.R.R.R.",
"R.R.R.R.R.R.R.R.R.R.R.R.R.R.R.Q h.k.j.) h @ D } v @ g v % O O j E _ ` H R.R.R.R.R.R.R.R.R.R.R.R.R.R.",
"R.R.R.R.R.R.R.R.R.R.R.R.R.R.= } y.y.$.) Z @ @ n h + O h { @.v z t.k.z.a.H R.R.R.R.R.R.R.R.R.R.R.R.R.",
"R.R.R.R.R.R.R.R.R.R.R.R.R.R.R.9 w f C / / D @ + o O + ( k.x.g.v S #.#.d.s.G R.R.R.R.R.R.R.R.R.R.R.R.",
"R.R.R.R.R.R.R.R.R.R.R.R.R.R.R.R.R.- # a a a @ % o * # ^ h.k.k.M 6 4 ; | s.q R.R.R.R.R.R.R.R.R.R.R.R.",
"R.R.R.R.R.R.R.R.R.R.R.R.R.R.R.R.R.0 P 2 2 2 2 2 4 P J b S o.f.m -.< R.R.9 ; R.R.R.R.R.R.R.R.R.R.R.R.",
"R.R.R.R.R.R.R.R.R.R.R.R.R.R.R.R.R.t 6.5.5.5.5.5.5.b.n.b.! H n ! 7.0 R.R.R.R.R.R.R.R.R.R.R.R.R.R.R.R.",
"R.R.R.R.R.R.R.R.R.R.R.R.R.R.R.R.R.t 0.w.w.w.w.w.w.Z.L.G.C.9.=.b.V.e R.R.R.R.R.R.R.R.R.R.R.R.R.R.R.R.",
"R.R.R.R.R.R.R.R.R.R.R.R.R.R.R.R.R.t 0.w.w.w.w.w.w.A.L.L.P.J.D.K.N.e R.R.R.R.R.R.R.R.R.R.R.R.R.R.R.R.",
"R.R.R.R.R.R.R.R.R.R.R.R.R.R.R.R.R.R.-.8.8.8.8.8.8.M.F.F.F.F.F.A.1.R.R.R.R.R.R.R.R.R.R.R.R.R.R.R.R.R.",
"R.R.R.R.R.R.R.R.R.R.R.R.R.R.R.R.R.I e.*.*.*.*.*.*.<.3.3.2.2.3.e.v.e R.R.R.R.R.R.R.R.R.R.R.R.R.R.R.R.",
"R.R.R.R.R.R.R.R.R.R.R.R.R.R.R.R.R.t b.Z.C.C.C.C.C.K.Y.Y.Y.Y.Y.Y.F.e R.R.R.R.R.R.R.R.R.R.R.R.R.R.R.R.",
"R.R.R.R.R.R.R.R.R.R.R.R.R.R.R.R.R.t q.w.w.w.w.w.w.D.L.K.L.L.L.L.V.e R.R.R.R.R.R.R.R.R.R.R.R.R.R.R.R.",
"R.R.R.R.R.R.R.R.R.R.R.R.R.R.R.R.R.t 0.w.w.w.w.w.w.S.K.K.I.U.U.I.N.e R.R.R.R.R.R.R.R.R.R.R.R.R.R.R.R.",
"R.R.R.R.R.R.R.R.R.R.R.R.R.R.R.R.R.R.~ w.w.w.w.w.n.G.K.L.T.T.T.H.;.R.R.R.R.R.R.R.R.R.R.R.R.R.R.R.R.R.",
"R.R.R.R.R.R.R.R.R.R.R.R.R.R.R.R.R.R.K w.w.w.w.w.w.D.L.L.T.T.T.H.u R.R.R.R.R.R.R.R.R.R.R.R.R.R.R.R.R.",
"R.R.R.R.R.R.R.R.R.R.R.R.R.R.R.R.R.R.K 8.w.w.w.w.w.B.J.P.T.T.U.m.y R.R.R.R.R.R.R.R.R.R.R.R.R.R.R.R.R.",
"R.R.R.R.R.R.R.R.R.R.R.R.R.R.R.R.R.R.R.U 8.w.w.w.w.w.B.J.I.U.m.&.R.R.R.R.R.R.R.R.R.R.R.R.R.R.R.R.R.R.",
"R.R.R.R.R.R.R.R.R.R.R.R.R.R.R.R.R.R.R.R.K Y U U Y Y Y :.:.:.&.R.R.R.R.R.R.R.R.R.R.R.R.R.R.R.R.R.R.R.",
"R.R.R.R.R.R.R.R.R.R.R.R.R.R.R.R.R.R.R.R.R.R.R.R.R.R.R.R.R.R.R.R.R.R.R.R.R.R.R.R.R.R.R.R.R.R.R.R.R.R.",
"R.R.R.R.R.R.R.R.R.R.R.R.R.R.R.R.R.R.R.R.R.R.R.R.R.R.R.R.R.R.R.R.R.R.R.R.R.R.R.R.R.R.R.R.R.R.R.R.R.R.",
"R.R.R.R.R.R.R.R.R.R.R.R.R.R.R.R.R.R.R.R.R.R.R.R.R.R.R.R.R.R.R.R.R.R.R.R.R.R.R.R.R.R.R.R.R.R.R.R.R.R.",
"R.R.R.R.R.R.R.R.R.R.R.R.R.R.R.R.R.R.R.R.R.R.R.R.R.R.R.R.R.R.R.R.R.R.R.R.R.R.R.R.R.R.R.R.R.R.R.R.R.R.",
"R.R.R.R.R.R.R.R.R.R.R.R.R.R.R.R.R.R.R.R.R.R.R.R.R.R.R.R.R.R.R.R.R.R.R.R.R.R.R.R.R.R.R.R.R.R.R.R.R.R.",
"R.R.R.R.R.R.R.R.R.R.R.R.R.R.R.R.R.R.R.R.R.R.R.R.R.R.R.R.R.R.R.R.R.R.R.R.R.R.R.R.R.R.R.R.R.R.R.R.R.R.",
"R.R.R.R.R.R.R.R.R.R.R.R.R.R.R.R.R.R.R.R.R.R.R.R.R.R.R.R.R.R.R.R.R.R.R.R.R.R.R.R.R.R.R.R.R.R.R.R.R.R.",
"R.R.R.R.R.R.R.R.R.R.R.R.R.R.R.R.R.R.R.R.R.R.R.R.R.R.R.R.R.R.R.R.R.R.R.R.R.R.R.R.R.R.R.R.R.R.R.R.R.R.",
"R.R.R.R.R.R.R.R.R.R.R.R.R.R.R.R.R.R.R.R.R.R.R.R.R.R.R.R.R.R.R.R.R.R.R.R.R.R.R.R.R.R.R.R.R.R.R.R.R.R.",
"R.R.R.R.R.R.R.R.R.R.R.R.R.R.R.R.R.R.R.R.R.R.R.R.R.R.R.R.R.R.R.R.R.R.R.R.R.R.R.R.R.R.R.R.R.R.R.R.R.R.",
"R.R.R.R.R.R.R.R.R.R.R.R.R.R.R.R.R.R.R.R.R.R.R.R.R.R.R.R.R.R.R.R.R.R.R.R.R.R.R.R.R.R.R.R.R.R.R.R.R.R."
};
