/* XPM */
static char *wall_bg[] = {
/* columns rows colors chars-per-pixel */
"50 50 188 2 ",
"   c #061D16",
".  c #05210C",
"X  c #0F2D17",
"o  c #112F1A",
"O  c #143217",
"+  c #15321B",
"@  c #18351B",
"#  c #1C3A16",
"$  c #23291D",
"%  c #223E15",
"&  c #363D1A",
"*  c #031F25",
"=  c #072722",
"-  c #1B2C29",
";  c #1C2C22",
":  c #143121",
">  c #1B3824",
",  c #222E23",
"<  c #292F29",
"1  c #273A28",
"2  c #3D3D2C",
"3  c #3E3A36",
"4  c #513A2E",
"5  c #4B3E38",
"6  c #4B3C35",
"7  c #543E32",
"8  c #4A362E",
"9  c #254218",
"0  c #2A4215",
"q  c #304718",
"w  c #264024",
"e  c #2D452B",
"r  c #2D4525",
"t  c #354A2C",
"y  c #3C492C",
"u  c #3F5123",
"i  c #3E532A",
"p  c #375233",
"a  c #385134",
"s  c #424A1E",
"d  c #42551D",
"f  c #45402F",
"g  c #4A552A",
"h  c #485926",
"j  c #565F2E",
"k  c #515927",
"l  c #4E433C",
"z  c #484637",
"x  c #554033",
"c  c #545939",
"v  c #4B5F37",
"b  c #644A38",
"n  c #536027",
"m  c #5C652C",
"M  c #5C6A2D",
"N  c #4B633A",
"B  c #586835",
"V  c #5B713D",
"C  c #646D2F",
"Z  c #656C30",
"A  c #6B7835",
"S  c #6B733E",
"D  c #6C783B",
"F  c #667334",
"G  c #707B36",
"H  c #767F3B",
"J  c #4A4942",
"K  c #474342",
"L  c #584E42",
"P  c #5C554F",
"I  c #5F5956",
"U  c #65544A",
"Y  c #625B53",
"T  c #6B5D53",
"R  c #5F7842",
"E  c #677B41",
"W  c #6B635C",
"Q  c #726D5C",
"!  c #74725F",
"~  c #676948",
"^  c #746B63",
"/  c #797368",
"(  c #8E5C3A",
")  c #925F3C",
"_  c #93603D",
"`  c #986C4F",
"'  c #966A4D",
"]  c #8F6C54",
"[  c #9B6E51",
"{  c #A3714E",
"}  c #A77655",
"|  c #A87755",
" . c #AA7856",
".. c #AB7B59",
"X. c #B17E5B",
"o. c #827A6C",
"O. c #967963",
"+. c #837A78",
"@. c #7E893C",
"#. c #798339",
"$. c #6C8040",
"%. c #7C8542",
"&. c #808E3F",
"*. c #86923E",
"=. c #859141",
"-. c #889743",
";. c #8D9E47",
":. c #B3805D",
">. c #B8845F",
",. c #9BA94C",
"<. c #95A44A",
"1. c #9EAA53",
"2. c #A2AE4C",
"3. c #A0B14D",
"4. c #A5B452",
"5. c #ACBB54",
"6. c #A8B551",
"7. c #86806F",
"8. c #9E816E",
"9. c #8B8376",
"0. c #898179",
"q. c #968B7C",
"w. c #B68968",
"e. c #AE8F79",
"r. c #AF8A71",
"t. c #B98D70",
"y. c #B4937C",
"u. c #A98365",
"i. c #C29A7D",
"p. c #C59777",
"a. c #B3C459",
"s. c #968D80",
"d. c #9C9183",
"f. c #9C9188",
"g. c #A79D8F",
"h. c #A59781",
"j. c #BC9B84",
"k. c #BF9D88",
"l. c #A59993",
"z. c #ACA191",
"x. c #BDAE9D",
"c. c #B3A79B",
"v. c #BEB19E",
"b. c #BEB1A4",
"n. c #C59D81",
"m. c #CBA78B",
"M. c #CDA98D",
"N. c #C7A58A",
"B. c #D2A98A",
"V. c #CFAD91",
"C. c #D1AE92",
"Z. c #D2B295",
"A. c #D4B799",
"S. c #D7BC9E",
"D. c #DABB9D",
"F. c #D9B294",
"G. c #C2B6A3",
"H. c #CCBCA5",
"J. c #C5BAAB",
"K. c #CDBEA9",
"L. c #D0BFA6",
"P. c #DCBFA1",
"I. c #C8BDB0",
"U. c #CFC0AB",
"Y. c #D1C0A7",
"T. c #DCC3A4",
"R. c #D3C4AD",
"E. c #D8C7AF",
"W. c #D8C8AF",
"Q. c #CFC3B4",
"!. c #D5C6B2",
"~. c #D7C8B4",
"^. c #D9CAB4",
"/. c #D7CAB8",
"(. c #DCCEBA",
"). c #D8C7B0",
"_. c #DED0BD",
"`. c #E1D2BD",
"'. c #E5C8A7",
"]. c #DCCFC0",
"[. c #DED2C1",
"{. c #E1D4C3",
"}. c #E5D8C7",
"|. c #EADAC4",
" X c #E8DBC9",
".X c #EEE1CD",
"XX c #F0E3CF",
"oX c #F7E9D4",
/* pixels */
"/././././././.!.^.(.(.^.(.(.(.^.(.^.^.^.^.^.(.^.(.(.(.^.(./.^.^.Q.~.~././.^./.~././.~././.(./././.(.",
"(.(.[.(.`.`.].~.(.`.(.(.(.`.(.^.`.(.(.`.(.^.(.(.(.'.^.^.(.`.`.(./.(.(._._._.(.(._.[.`.(.`.(.(._._.(.",
"`.(.[._.(.[.(./.(.(.(.^.'./.!.E.R.E.E.E.E.!.!.).!.^.!.E.E.!.E.R./._.(.[._._.[.[._.[._.[.{.].(.].{.{.",
"(.(.(./.(.(./.R.!.K.L.L.R.U.E.!.).^./.(.(._.(._.(.(.(.(.(.(.^.).Q.(.(.(.(.(.(.(.(.(./.(.(.(./.~./.(.",
"!.!.R.K.!.!.!.K.K.R.!.!.~.(.~.!.!.!.).!.~.!.).!.!.!.!.!.~.!.!.!.R.!.R.R.R.E.R.R.Q.!.R.!.!.Q.!./.!.K.",
"[.[.(.(./.(././.(.(.(.(././.~.~.(.(.(.(.(.(.(.^.(.(.^.(.(.(.^.(.(.(.(.(.(.(.(././.{.{.`.[._.{.{.{.{.",
"_._.`.`.{.`.`.`.`.`._._.(.`.(.~.(.(.(.(.(.^.(.(.(.(.(.`.`.(.(.(.(.(.`.^.(./.(./.(.`.`.`._.`.`.`._.`.",
"_._._._._.(.(._.(._.(._.`.`.(.~.^.^.^.^./.^.^.^.^.^.^.^.^./.^./.~.^.^.^./.^.~.!./.`.`.(.`.(.`.`._._.",
"~./.~.~.~.~.~./.I.!.~.!.!.!.R.R.R.R.R.R.R.E.R.E.R.R.R.R.R.R.R.R.U.K.!./.!././.Q./.~././.!./././.~.~.",
"{.{.[.[.{.[.].[.(.K.!.!.E././.^./.(.(.(././././.^./.^.^././.^.!.~.R._.[.[.[.{.[.[.[.[.{.[.[.[.[.{.{.",
"(.[.].(._.[._._.^.^.(.^.'././.~.!.^.!.).^.!.~.^.^./.^.(.(.^./.(._.~.(.[.(.(.(._.(.(._.(.(.(.(.[.].(.",
"[.[.[.[.[.{.[.{.(.^.(.(.(.(.(.(.(.(.`.`.(._._.`.(.`.`.`.`.(.`.(._.~./.[.[.[.[.[.[.(.(.(.(.(.(.(.(.(.",
"!.K.R.R.!.~.^.^.~.K.E.E.K.E.!.!.^./.^.E.E.~./.^.~.!./.~.^./.!./././././././.~.~.~./.!.!.~././.!.~./.",
"(.(.(.(.^.(.(.(.(.(.(.(.(.(.'.`.W z 9.(.^.!.Y z d._.(.}./.[.{.(.(.].(./.[.[.[.{.[.[.[.[.[.[.[.[.{.{.",
"(.(.(.(.(.(.(.(.(.(.(.(.(.(.(.`.P k D q.}.Y s A E s. XJ.z 9.{.[.XXXXXX.X{.{.{.{.{.{.{.{.[.{.{.[.{.{.",
"/.~.^.^.^.^.W.W.^.^.^.(.^.^.`.`.(.6 @.j o.z m H 3.c +.c 4.Z l.oXc.l.l.l.].}.[.[.[.[.(.]._._.[.(.].[.",
"U.R.!.!.~.~.~.~.^.~.~.E.E.`.x.9.o.- t w X * 1 h #.p $ @.5.B I f.y 2 g j o.J.~./.Q././.!./.~././.!.!.",
"^.E.~.E.E.~.~.E.~.~.E.E.(.c.z & M S 1 = e E B + n 1 $.6.5.E   q =.<.a.@.7./.`.(.(.(.(./.(._.(.(.!.~.",
"R.R.E.R.R.R.R.R.R.E.E.R.E.H.Q 8 1.3.m g e A 4.V @ h F <.6.V 1 -.3.4.D / }.`.(.(.(.(.(.(.(._.(._.U.R.",
"~.E.E.E.~.E.E.R.E.R.R.E.R.^.K.J.J g i % : g G 4.N i C F B : 0 q h %.d.}.(._.`._._.{.[.{.{.[.[.[.!.E.",
"U.U.U.U.U.U.K.U.R.U.U.R.K.L.^.G.c e p > = g m #.B w C C t @ # + . K c.Q.(./././././././././.~./.U.K.",
"_._.[._.[.[.[./.(._._._._._.G.~ ,.5.3.F @ @ h A t O u t . o o e N N g ^ ].{.(.[.[.[.[.[.[.[.[.[.[.[.",
"_.[.[._._._._.~._._._._.(.|.^ k -.%.G m n @ : d > @ O > V E e q =.5.a.%.^ (.{.(._._.(._._.[._._._._.",
"}.[.[.[.{.[.{._.{.}.[.}.[.oX+.$ 2 0 u Z Z n @ + % : @ M 5.5.;.1 h #.C ;.-.Q (.{.[.{.[.{.[.[.[.[.[.[.",
"_._._.(.(.(.]./.(.].].(.[.{.~.I.b.< + 9 9 9 @ o % + O M ,.,.5.p - 1 3 ~ *.f /.(.(.(._._.[.(._.(._._.",
"~.!.!.^.~././.Q.~.~././.~.~.(.`.K.7 x ; , ; , , + b 6 e i A 3.e b P  Xd.J Q ~./././.~./.~.~.~.~././.",
"^././.(.^.^.~.U.!.R.~.).~.~.!.W.J.l } ) ) ) ' ) ( ..p.u.z y r z ] Y }._.{.`.^.(.(.(.^.^.(././.^.~.^.",
"^.^.^.^.^.^.~.R.^.~././.~./.~.^.J.6 ............ .i.V.m.p.O.z t.y.P `.E.E.E.~.~.~.^.~.~.^.~.~.E.~.~.",
"^.^.~.^.~.~.!.Q.(.(.(.(.(.(.^.(.J.l  .X.....X... .n.Z.C.Z.C.i.F.r.P `.!.~.~.~.~.^.~.~.~.~.~.~./.~.(.",
"H.H.H.H.H.H.H.H.H.H.H.H.H.H.H.H.L.q.b [ ` [ ` [ ' r.n.j.j.j.N.i.W c.Y.K.H.K.K.K.H.K.H.K.K.K.K.H.H.H.",
"U.R.Y.R.Y.E.R.R.R.T.R.E.E.R.R.W.G.Y O.5 l l l l 5 Y W W W W W Q h.^ {./.(.(.(.(.(.(.(.(.(.(.(._.U.R.",
"R.R.E.R.E.R.R.R.R.R.L.R.R.R.R.E.G.6 w.n.i.n.n.n.y.Z.T.T.T.T.T.'.y.P {.(.(.(.(.(.(.(.(.(.(.(._.^.R.R.",
"E.E.E.E.R.T.E.Y.E.R.R.R.R.R.R.E.G.5  . .| |  . .} p.V.m.m.m.N.C.e.P _.~./.(./.^./.^./.^.(.^.(./.Y.E.",
"H.G.H.H.H.H.H.H.H.Y.H.Y.Y.Y.Y.Y.x.5 .. . . . ...} i.V.m.Z.Z.A.P.e.P {././.(././././.K.H.H.K.L.H.H.H.",
"R.R.Y.R.R.R.E.Y.Y.E.E.E.E.E.R.R.W.h.b X... ... .w.m.m.Z.P.P.P.M.T I.{.{.{.}.}. X}.{.!.L.R.T.R.L.Y.Y.",
"W.W.^.^.^.^.^.(.W.^.W.^.^.W.^.E.`.z.8 >. ... ... .n.V.V.P.P.P.F.K {.{.{.{.{.{.{.{.`.~.!.^.^.^.^.^.^.",
"W.W.E.W.~.E.W.W.E.E.W.^.^.E.E.E.^.v.Y ` :.} } :.} t.m.V.S.S.'.O.o.{.{.{.{.{.{.{.{.}.^.E.E.E.E.~.E.E.",
"R.E.U.R.R.R.U.U.U.U.Y.U.Y.R.R.U.Y.~.G.U ' >.:.:.:.:.p.Z.D.'.O.^ ~.~.!.!.~.~.^.^./.^.R.Y.H.E.R.R.R.R.",
"^.^.^.~.E.~.R.E.W.^.~.R.E.~.E.R.E.R.^.b.~ 4 x x x x 7 U U L o.W.^.^.^.'.^.^.W.W.^.E.E.W.R.~.~.~.~.^.",
"^.E.E.E.R.R.U.Y.Y.Y.Y.Y.U.R.E.~.W.^.E.~.G.g.z.z.z.z.z.z.g.g.E.`.^.(.(.(.(.(.(.^.(.^.^.^.R.^.^.^.^.^.",
"R.E.E.E.R.E.E.R.U.U.R.E.R.R.~.~.W.W.W.U.^.}._.`.`._.`._.`._.^.R.E.E.E.E.E.~.~.^.^.^.~.^.Y.E.R.E.E.R.",
"!.!.R.!.!.R.U.R.!.R.R.R.!.R.R.R.R.Y.R.U.H.Y.U.Y.H.Y.Y.U.Y.R.U.!.R.!.R.~.E.R.E.~.E.E.E.E.U.U.U.U.R.R.",
"~.W.W./.^.R.R.R.R.R.R.R.R.E.~.R.E.R.R.R.U.E.R.R.R.R.R.R.E.E.U.!.~.~.~./.~.~.~.~.~.~.^.~.^.^.^.^.^.^.",
"/.W.W.^./.!.E.E.W.E.R.R.Y.R.Y.R.Y.R.Y.Y.Y.U.Y.Y.Y.Y.Y.Y.Y.Y.Y.^.^.~.^.^.^.^.^.^.~.^.^.~.^.^.^.^.^./.",
"E.E.W.~.W.R.U.U.Y.Y.Y.Y.R.R.Y.R.U.Y.R.R.R.Y.R.R.E.R.R.E.R.R.Y.W.^.^.^.E.^.~.E.~.^.~.~.~.~.~.~.E.E.!.",
"U.!.U.U.U.U.Y.Y.Y.U.U.U.Y.U.U.Y.U.Y.U.Y.U.U.U.U.Y.Y.Y.H.H.Y.H.Y.R.H.U.R.U.U.R.~.~.~.^././.~.~.~.R.R.",
"U.E.R.R.E.R.R.R.R.R.E.R.R.R.R.R.!.!.!.E.R.R.W.~.U.Y.Y.U.Y.Y.R.R.R.!.R.!.!.~.!.R.R.R.R.R.!.R.R.~.~.E.",
"!.(.^.^.^.^.^.^.^./.^.^.^.^./.^.^.W.W.^.W.^.^.W.!.!./.W.(.(.(._._.(._._._._._._._.(.^.^.~.~.~.~.^./.",
"!.^.W./.^.^.^.^./.^./.^.^.(.^.^.^.^.W.^.(.^.(.^.~.^._._._.(.`.`._.(.`.`.`.`._.`.`.`.(.`.`.`.`.`.`._.",
"R.E.R.E.W.^.W.E.W.W.^.W.W.W.W.W./.W.~.E.E.!.W.^.!./._.(.(._.(.(._._.^._.`._.`.^.(._.`.^.`.^.^.(.(.^."
};
