/* XPM */
static char *yw_bg[] = {
/* columns rows colors chars-per-pixel */
"50 50 111 2 ",
"   c #020304",
".  c #050608",
"X  c #0B0C0D",
"o  c #0E0F10",
"O  c #151515",
"+  c #1A1A19",
"@  c #282726",
"#  c #2E2C2A",
"$  c #322F2E",
"%  c #383533",
"&  c #3C3936",
"*  c #3D3B38",
"=  c #45413C",
"-  c #494541",
";  c #4C4943",
":  c #524E48",
">  c #55514A",
",  c #5A554E",
"<  c #5D5851",
"1  c #645D56",
"2  c #666057",
"3  c #6A645B",
"4  c #6F6960",
"5  c #726C63",
"6  c #786F64",
"7  c #777064",
"8  c #7C746B",
"9  c #81796E",
"0  c #D9B616",
"q  c #E6C431",
"w  c #F4CF32",
"e  c #F0CF3D",
"r  c #F4D23E",
"t  c #878076",
"y  c #8A8276",
"u  c #8D857A",
"i  c #928779",
"p  c #938A7D",
"a  c #DBBE40",
"s  c #D4BC69",
"d  c #DCC04F",
"f  c #E5C745",
"g  c #E1C449",
"h  c #F5D445",
"j  c #E1C75D",
"k  c #F3D554",
"l  c #F1D35A",
"z  c #D6C06F",
"x  c #D7C07C",
"c  c #ECD166",
"v  c #EED369",
"b  c #F0D462",
"n  c #F8DC60",
"m  c #E5CD7E",
"M  c #FCE36C",
"N  c #FAE57F",
"B  c #958D81",
"V  c #998E81",
"C  c #9C9285",
"Z  c #A09586",
"A  c #A19689",
"S  c #A59A8B",
"D  c #A99E8F",
"F  c #A89E90",
"G  c #AEA293",
"H  c #B1A594",
"J  c #B5A999",
"K  c #C5B6A2",
"L  c #C9B7A1",
"P  c #C7B9A4",
"I  c #CCBCA5",
"U  c #C5B9A9",
"Y  c #CEBEA9",
"T  c #D0BFA7",
"R  c #D6C184",
"E  c #D6C393",
"W  c #E3CE8B",
"Q  c #E3CF90",
"!  c #E4D197",
"~  c #CFC0AB",
"^  c #D2C1A7",
"/  c #DCCCA4",
"(  c #D4C4AD",
")  c #D8C7AF",
"_  c #D7C8AF",
"`  c #D9C9AF",
"'  c #CEC1B2",
"]  c #D5C6B2",
"[  c #D8C7B0",
"{  c #D7C8B4",
"}  c #D9CAB4",
"|  c #D4C7BA",
" . c #D6C9BA",
".. c #DCCEBA",
"X. c #DED0BD",
"o. c #E1D0A4",
"O. c #E0D1BD",
"+. c #D8CBC4",
"@. c #DCCFC9",
"#. c #DED2C1",
"$. c #E1D4C3",
"%. c #E5D8C5",
"&. c #EADAC4",
"*. c #E1D5C8",
"=. c #E5D9C9",
"-. c #EBDCCA",
";. c #EFE2D3",
":. c #F5E5D1",
">. c #FCEEDB",
",. c #FFF4DF",
"<. c #FFFBE5",
/* pixels */
"{ { } ..{ {  .( ......} X.X.......} } ..} ..} } O.} } ....} } ..~ { { {  . .| ] { .. .{ {  ...{ {  .",
"..X.+...X.#.#.{ ..X.} ..O...X...........} ..O.} O.} } ....} X.O. .X.X.X.X.X.X.X.X.X.X.X.X.X.X.X.X.X.",
"#.#.X.#.+.#.#.] X...} ..} } [ [ ( ) / ) ] ) ] ] ) ) ) ) ( ) ) ^ ( #.X.X.X.X.X.#.X.X.X.X.#.#.X.X.#.#.",
"..............Y ( ( ^ T ^ ^ ( [ [ } ........X.X.O.X...X.X.X...{ ' X. ...X.....X.X.X. ...{ ....X.} ..",
"] ] ( ( ] ] ] ( ( { { { { ..{ ] { { [ { { { [ } { ] [ } { [ { { ( ( ] ( ] ( ' ( ~ | { ] ] ] {  .] { ",
"#.X.........{  ...{ { ......{ { ..............} ....................X...X.X.X.} X.#.O.O.#.X.O.O.#.#.",
"X.O.O.O.$.O.$.O.$.O.X.O...X...............} ..........X.........X...X.X.X...X.{ { X.X.O.O.O.O.O.O.O.",
"O.X.O...O.........O.....O.O...{ ..{ } } ..} } } [ } [ ..} } } } } } ] ] } ` } ] X.X.X.X.O.X.O.X.O.X.",
"]  .] ] ] ] ] ] ' Y ] ' { ( ( ~ ~ ( ( ( ~ ] ( ( Y Y T Y Y T Y Y ~ ~ ' { ' ] { ' ] } ] | ]  .] | { ] ",
"#.#.#.#.$.#.#.#...] { { ( } { ..} ..} } } ..} } ....} ..X...} } } ( X.#.#.#.#.#.#.#.#.#.#.#.X.#.#.$.",
"..#.#.#.X.X.X.X.} } { ..} } } } { { { { { { { { } } } ..........X.] ..X.X.X.X.X.X.X.{ X.X.X.X.X.#...",
"#.#.X.#.#.$.#.$...} X.......} X.X.X.X.X.X.X.O.O.X.O.#.O.X.X.X...X.] X.#.#.#.#.#.X.X.X...X.X.X.X...X.",
"] ] ( ( { { } { { ] } ( { ( ) } ( } } { ) } } ) { { { { { } } { ..] |  .....{  .| | ] ] | ] | {  .{ ",
" .{ O.} } } O.} } ..O.} ..} } O.} ..} } } ` } } } { #.#.#.#.+.#.X.#.X.#.#.#.#.#.X.X.#.#.#.#.X.#.#.#.",
" .} X...O.X.} ........O...} O.} O.} } } } O.} } X.} ..#.$.$.%.%.=.#.#.%.#.#.%.#.#.#.=.%.#.%.%.#.%.$.",
" .{ } ..} { } } } } } } } O.} } } } } O...} X...} { #.=.$.$.$.$.%.#.%.%.#.#.#.X.#.X...X.X...X.X.#.#.",
"~ ( ] ] { { { { } } { } } { } } } } } } { ) { { { ] | {  .X... .{ ] ] ' | ] ] ] ] | | { | {  .] ] { ",
"} } ` } } } } ` { ) { { ) ) } } ) } } } } } } ~ X.X.X.X.X.X.X.X.X...X...X.X.X.X...X.X.X.X.X.X.X.] } ",
"( ( ( ) ( ( ( ( ( ) ( ) ( ( ( ( ( ( ( ( ) ( ( ~ X.X.} X.X.X.X.X.X.X...X.X.X...X.X.X.X.X.X.X.X.X.~ ( ",
"_ _ ( ` } ` ( ( ) ( ( ) ) ) ( { ) ) ( ) ) ) { ] #.X.#.#.X.X.X.X.#.X.X.O.X.X.X.X.X.X.X.X.%.#.X.#.] ( ",
"~ ~ ~ ~ ~ P ~ ~ ~ ~ ~ ~ I Y Y Y ~ I ~ ~ ~ ~ ~ I ] } | | | { | ]  .] ]  . . .| | | | #. .|  . .{ ~ I ",
"X.X.X.X.X.=.X.| &.#.X.=.-.....#.} &...{ X.} { X.O.} O.} ..( { %.{ %.=.+.+.#.o.Q ! ! E #.X.X.#.#.#.#.",
"X.#.#.#.| i #.{ 3 F X.3 1 ] H F ] 1 G &.Z G &.C 5 J 3 H p &.~ 2 G 8 p %.X.#.v M M w d X.#.#.X.X.#.X.",
"#.#.X.=.' - :.U . 4 8 G : ; y t |   i ,.5 i <.5 + C . C $ B '   u # > ;.o.c l N k e d j / #.#.#.#.#.",
"X.X.X.X. .5 p & O D , $.6 # y u ] X p ,.8 y ' 8 @ C + p 4 B 3 + i % < -./ m l e h r a s / #.X.X.X.X.",
"{ {  . .}  .- O Z $.; ..5 # 9 y ] X i :.6 8 3 9 + p + p 3 =.t o i = 1 &. .) W k h f R /  .{  .{ { { ",
"} } ..} ( &.8 o Y { 2 Z - = V 6 i O C O.y 3 7 : * C . p 2 -.~   y S D %.....+.o.q E @..... .{ ....} ",
"} } } { ` ..S 3 ( } ( 4 2 U &.p , V X.] } C J 3 ' U 3 J C %.~ 3 G 9 i X.( ( } s 0 s ( } } { } } { } ",
"} } { ` { ] } X.O.....%.&...} O.&.$.} ..} $.O.-.X.X.%.X.X.' ] ..' O.O.{ { { } R R R { {  .{ { { { ..",
"I I I ^ ~ ^ P K I I Y I L I I L K I I I I I L K I P K I P I ~ I I I I Y Y Y Y ' ' ' Y Y Y Y ~ I I ~ ",
"^ ( ( ( ( ( ( _ ) ( ) ) [ [ ( ) ( ) ( ( ) ( ~ ~ { ..} } { { { { ............................X...~ ^ ",
"( ( ( _ ( ( ( ( ^ ( ^ ( ( ( ) ^ ( ( ( ( ^ ( ( ] X.X.X.X.X.X.X.X...............X.........X.......( ( ",
") ( ) ) _ _ _ ^ _ ^ ( [ ( ( ( ( ( ( ( ^ ^ ( T ] .. .{ {  .{  . ...{ { ....{ ..{ { ..} ..} } ..{ ^ ) ",
"I I K ^ I I L I I ^ I T ^ T T T I ^ { ....{ ] { ] ] ] ] ] ] { .... ... . ... ... .{ ~ I I ~ ~ I I I ",
"( ^ ( ^ _ ^ ( _ ^ ) ^ / ) ) ( ) ( ( =.#.X. . .{ { {  .#.$.$.=.$.#.$.$.$.$.$.=.=.=.$.] I ^ ^ ^ ^ ^ ^ ",
"} } } } ` } } } } } } } ) } } } } {  .{ { { { { { #.$.$.$.=.$.O.$.$.$.$.$.$.$.$.#.#.] { } ..} } } } ",
"` ` } ` ) } ` ` [ [ [ } } } [ } } ( { X.#.X.$.%.$.*.%.$.$.$.$.%.$.$.$.$.$.$.%.%.$.=.} ) } ) ) } } ) ",
"( ) ( ( ( ~ ~ ~ ( ( ^ ^ ^ ( ^ ^ ~ (  .{  ...} ......} } { { } ) { { } } { { } } { } { ^ ^ ( ( ( ( ( ",
"} } } } } ( } _ { { { { { [ { { ( ) ( ^ ) } } ) } ) } ` } } ` ` } } } ` } } ` ` } ) } ` ( { } { } } ",
"} { ) ( ( ( ~ ~ T I T ^ ^ ( ( { } { } ( } } } } } } } ..} } } ..} } ....} O.} } ..} } } ( } } } } } ",
"( ) ( ) ( ( ) ( ^ ^ ( ( ( ( { { { } { ( { } } ....} } } } } } ] ) ( ( ) ) ) } { } } { } ^ ) ) ) ) ( ",
") { { { } ] ( ] { { { ) { ) { ( ( ( ( I ~ ~ ~ ~ ~ ~ ~ ~ ~ ~ ( ] { { { { { { } { { ) ) } ( ~ ~ ( ( { ",
"} { } } { ( ( ( ( } ( ( ( { ) ( ) ( ( ( ( ( ) ( _ ( ( ( ( ` ~ ( { { { } { } } { } } { { { ....{ { { ",
"} } } { } ] ) ) ( ( ( ^ ^ ^ ^ ( ^ ^ ^ ^ ^ ^ ^ ^ ^ ^ ^ ^ ^ ~ ^ } } } } } } } } { } } } { { } } } } { ",
") } ) } } ~ ^ ^ ^ ^ ^ ( ( ( ^ ( ^ ( ( ( ( ( ( ( ( ( ( ( ^ ( ^ ) } } } ) { } ) { } } { } ) } } ) ) ) ",
"~ ( ~ ~ ~ ~ ~ ^ ~ I ~ ~ I ~ I ~ I ~ ~ ^ ~ I ~ ~ ~ I ^ I ^ ~ ~ ~ ^ I ~ ^ ~ ~ ( { { { {  .{ { { ] ( ( ",
"~ ( ~ ( ( ] ( ( ( ( ( ( ( ) ( ( ( ( ) ( ( ( { ) ~ I ~ ~ ^ ( ( ^ ( ] ] ] { { ( ( ( ~ ( ( ( { ] ] ) { ",
"( } } ..} } } } } } { } } } } } } } } } ` } } } { ( } } ......O.X.X.X.X.X.X.X.X.X.X.} { } { { { } ) ",
"( ..} { { } } } } } } } } } } { } ..} } } } X...] } X.X.....O.....X.O.O.O.} O.O.O.O.} O.O.O.O.O.O.} ",
"~ ) ) ` } } } ` ` } } } } ` ` ` } } } ( ) } } ` ( ] X.X.O.O...O.O.X...O.O.O.O.O...O.O.O.O.} } O.O..."
};
